<svg xmlns="http://www.w3.org/2000/svg" xmlns:xlink="http://www.w3.org/1999/xlink" contentStyleType="text/css" height="543px" preserveAspectRatio="none" style="width:752px;height:543px;background:#FFFFFF;" version="1.1" viewBox="0 0 752 543" width="752px" zoomAndPan="magnify"><defs/><g><!--cluster VB--><g id="cluster_VB"><path d="M22,9 L449,9 A3,3 0 0 1 452,12 L452,34.2969 L19,34.2969 L19,12 A3,3 0 0 1 22,9 " fill="#FBE9E7" style="stroke:#FBE9E7;stroke-width:1;"/><path d="M19,34.2969 L452,34.2969 L452,305 A3,3 0 0 1 449,308 L22,308 A3,3 0 0 1 19,305 L19,34.2969 " fill="#FFFFFF" style="stroke:#FFFFFF;stroke-width:1;"/><rect fill="none" height="299" rx="3" ry="3" style="stroke:#000000;stroke-width:1;" width="433" x="19" y="9"/><line style="stroke:#000000;stroke-width:1;" x1="19" x2="452" y1="34.2969" y2="34.2969"/><text fill="#000000" font-family="DejaVu Sans" font-size="14" lengthAdjust="spacing" textLength="241.083" x="114.9585" y="23.9951">BINDING (_table_to_robot, in RAM)</text></g><!--cluster RES--><g id="cluster_RES"><path d="M463,111 L729,111 A3,3 0 0 1 732,114 L732,136.2969 L460,136.2969 L460,114 A3,3 0 0 1 463,111 " fill="#E3F2FD" style="stroke:#E3F2FD;stroke-width:1;"/><path d="M460,136.2969 L732,136.2969 L732,533 A3,3 0 0 1 729,536 L463,536 A3,3 0 0 1 460,533 L460,136.2969 " fill="#FFFFFF" style="stroke:#FFFFFF;stroke-width:1;"/><rect fill="none" height="425" rx="3" ry="3" style="stroke:#000000;stroke-width:1;" width="272" x="460" y="111"/><line style="stroke:#000000;stroke-width:1;" x1="460" x2="732" y1="136.2969" y2="136.2969"/><text fill="#000000" font-family="DejaVu Sans" font-size="14" lengthAdjust="spacing" textLength="242.9219" x="474.5391" y="125.9951">RESOLUTION on POST /voice/listen</text></g><ellipse cx="162" cy="50" fill="#FFFFFF" rx="10" ry="10" style="stroke:#000000;stroke-width:1;"/><g id="VB.unbound"><rect fill="#FFFFFF" height="50" rx="3" ry="3" style="stroke:#000000;stroke-width:1;" width="85.8311" x="119" y="129"/><line style="stroke:#000000;stroke-width:1;" x1="119" x2="204.8311" y1="159.2969" y2="159.2969"/><text fill="#000000" font-family="DejaVu Sans" font-size="14" lengthAdjust="spacing" textLength="61.8311" x="131" y="148.9951">unbound</text></g><g id="VB.bound"><rect fill="#FFFFFF" height="50" rx="3" ry="3" style="stroke:#000000;stroke-width:1;" width="68.085" x="124" y="250"/><line style="stroke:#000000;stroke-width:1;" x1="124" x2="192.085" y1="280.2969" y2="280.2969"/><text fill="#000000" font-family="DejaVu Sans" font-size="14" lengthAdjust="spacing" textLength="44.085" x="136" y="269.9951">bound</text></g><ellipse cx="570" cy="152" fill="#FFFFFF" rx="10" ry="10" style="stroke:#000000;stroke-width:1;"/><g id="RES.lookup"><rect fill="#FFFFFF" height="50" rx="3" ry="3" style="stroke:#000000;stroke-width:1;" width="70.8877" x="534.5" y="250"/><line style="stroke:#000000;stroke-width:1;" x1="534.5" x2="605.3877" y1="280.2969" y2="280.2969"/><text fill="#000000" font-family="DejaVu Sans" font-size="14" lengthAdjust="spacing" textLength="46.8877" x="546.5" y="269.9951">lookup</text></g><g id="RES.no_device"><rect fill="#FFFFFF" height="50" rx="3" ry="3" style="stroke:#000000;stroke-width:1;" width="94.4238" x="468" y="478"/><line style="stroke:#000000;stroke-width:1;" x1="468" x2="562.4238" y1="508.2969" y2="508.2969"/><text fill="#000000" font-family="DejaVu Sans" font-size="14" lengthAdjust="spacing" textLength="70.4238" x="480" y="497.9951">no_device</text></g><g id="RES.socket"><rect fill="#FFFFFF" height="50" rx="3" ry="3" style="stroke:#000000;stroke-width:1;" width="69.7666" x="604" y="357"/><line style="stroke:#000000;stroke-width:1;" x1="604" x2="673.7666" y1="387.2969" y2="387.2969"/><text fill="#000000" font-family="DejaVu Sans" font-size="14" lengthAdjust="spacing" textLength="45.7666" x="616" y="376.9951">socket</text></g><g id="RES.start_listening"><rect fill="#FFFFFF" height="50" rx="3" ry="3" style="stroke:#000000;stroke-width:1;" width="123.3057" x="580.5" y="478"/><line style="stroke:#000000;stroke-width:1;" x1="580.5" x2="703.8057" y1="508.2969" y2="508.2969"/><text fill="#000000" font-family="DejaVu Sans" font-size="14" lengthAdjust="spacing" textLength="99.3057" x="592.5" y="497.9951">start_listening</text></g><polygon fill="#37474F" points="162,128.9581,166,119.9581,162,123.9581,158,119.9581,162,128.9581" style="stroke:#37474F;stroke-width:1;"/><path d="M162,64.0838 C162,79.6445 162,102.3656 162,122.9581 " fill="none" style="stroke:#37474F;stroke-width:1;"/><polygon fill="#37474F" points="123.834,271.2876,115.5584,265.9478,118.8938,270.5167,114.3249,273.8521,123.834,271.2876" style="stroke:#37474F;stroke-width:1;"/><path d="M118.7259,158.6193 C93.0295,163.2537 62.3587,173.6791 46,197 C37.067,209.7349 37.1396,219.2145 46,232 C63.388,257.0909 91.8082,266.2899 117.9057,270.3625 " fill="none" style="stroke:#37474F;stroke-width:1;"/><text fill="#000000" font-family="DejaVu Sans" font-size="12" lengthAdjust="spacing" textLength="132.8496" x="73.4902" y="212.1387">task "arrived" at table</text><text fill="#000000" font-family="DejaVu Sans" font-size="12" lengthAdjust="spacing" textLength="179.8301" x="50" y="226.1074">bind_table_robot(table, robot)</text><polygon fill="#37474F" points="205.161,171.1654,210.9819,179.11,209.4994,173.6508,214.9586,172.1684,205.161,171.1654" style="stroke:#37474F;stroke-width:1;"/><path d="M192.1228,263.7883 C207.4649,257.3028 224.0954,247.1924 233,232 C240.8659,218.5798 240.7064,210.5125 233,197 C226.6854,185.9279 221.3862,180.4606 210.3671,174.1479 " fill="none" style="stroke:#37474F;stroke-width:1;"/><text fill="#000000" font-family="DejaVu Sans" font-size="12" lengthAdjust="spacing" textLength="173.4434" x="247.2686" y="212.1387">task_done &#183; robot disconnect</text><text fill="#000000" font-family="DejaVu Sans" font-size="12" lengthAdjust="spacing" textLength="181.9805" x="243" y="226.1074">&#183; robot bound to another table</text><polygon fill="#37474F" points="570,249.6943,574,240.6943,570,244.6943,566,240.6943,570,249.6943" style="stroke:#37474F;stroke-width:1;"/><path d="M570,166.4102 C570,185.4911 570,218.2795 570,243.6943 " fill="none" style="stroke:#37474F;stroke-width:1;"/><polygon fill="#37474F" points="504.5074,477.7809,505.0557,467.9473,502.7342,473.1059,497.5756,470.7845,504.5074,477.7809" style="stroke:#37474F;stroke-width:1;"/><path d="M538.4371,300.0557 C522.1168,314.5434 503.8105,334.5168 495,357 C479.1918,397.3406 491.1843,442.6549 502.3796,472.1709 " fill="none" style="stroke:#37474F;stroke-width:1;"/><text fill="#000000" font-family="DejaVu Sans" font-size="12" lengthAdjust="spacing" textLength="92.3027" x="499" y="379.6387">no robot bound</text><text fill="#000000" font-family="DejaVu Sans" font-size="12" lengthAdjust="spacing" textLength="71.9648" x="509.1689" y="393.6074">to this table</text><polygon fill="#37474F" points="623.0047,356.6594,621.4049,346.9413,620.2588,352.4808,614.7193,351.3347,623.0047,356.6594" style="stroke:#37474F;stroke-width:1;"/><path d="M585.83,300.0891 C596.9705,317.042 608.5327,334.6367 619.7097,351.6451 " fill="none" style="stroke:#37474F;stroke-width:1;"/><text fill="#000000" font-family="DejaVu Sans" font-size="12" lengthAdjust="spacing" textLength="87.0996" x="615" y="333.1387">robot_id found</text><polygon fill="#37474F" points="514.6691,477.9412,519.2222,469.2079,514.9807,472.9509,511.2377,468.7094,514.6691,477.9412" style="stroke:#37474F;stroke-width:1;"/><path d="M603.9558,400.9452 C599.3102,403.0931 594.5731,405.1699 590,407 C565.3352,416.8705 551.0558,405.5124 533,425 C519.844,439.1992 516.0936,455.1275 515.043,471.9528 " fill="none" style="stroke:#37474F;stroke-width:1;"/><text fill="#000000" font-family="DejaVu Sans" font-size="12" lengthAdjust="spacing" textLength="95.1094" x="537" y="440.1387">that robot's mic</text><text fill="#000000" font-family="DejaVu Sans" font-size="12" lengthAdjust="spacing" textLength="88.8223" x="540.1436" y="454.1074">socket is down</text><polygon fill="#37474F" points="641.3938,477.9544,645.1657,468.8564,641.2678,472.956,637.1683,469.0581,641.3938,477.9544" style="stroke:#37474F;stroke-width:1;"/><path d="M639.6071,407.0814 C640.1276,427.7274 640.7224,451.3207 641.2426,471.9563 " fill="none" style="stroke:#37474F;stroke-width:1;"/><text fill="#000000" font-family="DejaVu Sans" font-size="12" lengthAdjust="spacing" textLength="65.3438" x="659.8525" y="440.1387">frame sent</text><text fill="#000000" font-family="DejaVu Sans" font-size="12" lengthAdjust="spacing" textLength="97.0488" x="644" y="454.1074">{type, table_id}</text><polygon fill="#C62828" points="459.9409,112.8524,460.3123,103.0105,458.084,108.21,452.8845,105.9816,459.9409,112.8524" style="stroke:#C62828;stroke-width:1;"/><path d="M452.0294,93.0734 C452.0743,93.1857 452.1193,93.2981 452.1642,93.4106 C452.3442,93.8604 452.5245,94.3113 452.7052,94.7631 C453.0667,95.6667 453.4296,96.574 453.7935,97.4838 C454.5213,99.3033 455.2531,101.1328 455.9849,102.9622 C456.7167,104.7917 457.4485,106.6213 458.1764,108.4411 C458.5404,109.351 458.9034,110.2585 459.2649,111.1623 C459.4457,111.6142 459.6261,112.0652 459.806,112.5151 C459.851,112.6276 457.6677,107.1692 457.7126,107.2815 " fill="none" style="stroke:#C62828;stroke-width:1;"/><text fill="#000000" font-family="DejaVu Sans" font-size="12" lengthAdjust="spacing" textLength="137.5547" x="460" y="97.1387">supplies table -&gt; robot</text><!--SRC=[RLBRRjf047ttLqpW8Q4AYa9Ge3nK2W4gf1OgIFCI8cln3h35p5YxQw8qYjIFwB_qlP_IB-duqiH4jInhVERCsJEpSvHOjTufYDKZfnxS3hqY5Hp3dvy_v8N46lBovPM94KuS8jHcI1e5NzT0UV0R1Cy9y4f2uo0ZDihou4YoEuGaLeO2jpMKAAjsi5JHTcqv9NtDCLkeZ_Admj2uKcdiHqn-eaIXDi1lwZQ5kI9N-pzlRhuZdBShIRTHcX_4AAnKxB2I8TReC87pRWMqYhOPsAfg94hhJA5L9HREBQ65omf-PIq_b1rTTDgTzkXjyjLdAmYSLruwwuydW_7a8vo4NYrZ33s7bfViJy4GpAu-DsJC3cxxCgN-yFsm0qy1mDsxUsWsFq1AoyoC86MKeqNK0w_S5chAMhD7NTnMTiI2bePqULn-raaUdqB-qn2rLwr_keLQg9aGVlygcA2DYvW88x-W5x3WUmP5BFTlYqE3vvUEPyFvzDFNc_5q0apmPJg_WRCzcmZFOkCyKjwmaA0-l1YrHeE3ZcFcRPe8K0GvHXngt8k0k2IksbYG-CZtiZ1nKEOusgANchmWD1fMvJ3Bp5jjlv4HvkHZ1piJBQWaYhvi6XrMIhVMXqLBsGhrO6MpNNP8Cgud_vZ8n8jBCFevcuzSSlEkVdtPwhQwzwAGpQ07BasIs63P0WYUMmZ-0W00]--></g></svg>