<svg width="1200" height="1120" viewBox="0 0 1200 1120" xmlns="http://www.w3.org/2000/svg" xmlns:xlink="http://www.w3.org/1999/xlink" overflow="hidden"><rect x="0" y="0" width="1200" height="1120" fill="#FFFFFF"/><rect x="230" y="18" rx="22" ry="22" width="340" height="44" stroke="#37474F" stroke-width="1.2" fill="#ECEFF1"/><text fill="#212121" font-family="DejaVu Sans,Verdana,Arial" font-size="13" text-anchor="middle" x="400" y="40">Tool calls proposed by the worker</text><path d="M400 62 400 88" stroke="#37474F" stroke-width="1.2" stroke-linejoin="round" fill="none"/><path d="M400 88 397.1 81.6 402.9 81.6Z" fill="#37474F"/><path d="M210 140 400 88 590 140 400 192Z" stroke="#37474F" stroke-width="1.2" fill="#FBE9E7"/><text fill="#212121" font-family="DejaVu Sans,Verdana,Arial" font-size="12" text-anchor="middle" x="400" y="132">A cart change and a</text><text fill="#212121" font-family="DejaVu Sans,Verdana,Arial" font-size="12" text-anchor="middle" x="400" y="148">confirmation in one turn?</text><path d="M590 140 700 140" stroke="#37474F" stroke-width="1.2" stroke-linejoin="round" fill="none"/><path d="M700 140 693.6 137.1 693.6 142.9Z" fill="#37474F"/><rect x="596" y="113" width="26.9" height="18" fill="#FFFFFF"/><text fill="#455A64" font-family="DejaVu Sans,Verdana,Arial" font-size="12" x="600" y="122">yes</text><rect x="700" y="110" rx="3" ry="3" width="330" height="60" stroke="#37474F" stroke-width="1.2" fill="#FFFFFF"/><text fill="#212121" font-family="DejaVu Sans,Verdana,Arial" font-size="12" text-anchor="middle" x="865" y="132">Strip the confirmation and</text><text fill="#212121" font-family="DejaVu Sans,Verdana,Arial" font-size="12" text-anchor="middle" x="865" y="148">re-queue it behind the change</text><path d="M865 170 865 258 570 258" stroke="#37474F" stroke-width="1.2" stroke-linejoin="round" fill="none"/><path d="M570 258 576.4 255.1 576.4 260.9Z" fill="#37474F"/><path d="M400 192 400 232" stroke="#37474F" stroke-width="1.2" stroke-linejoin="round" fill="none"/><path d="M400 232 397.1 225.6 402.9 225.6Z" fill="#37474F"/><rect x="404" y="203" width="20.6" height="18" fill="#FFFFFF"/><text fill="#455A64" font-family="DejaVu Sans,Verdana,Arial" font-size="12" x="408" y="212">no</text><rect x="230" y="232" rx="3" ry="3" width="340" height="52" stroke="#37474F" stroke-width="1.2" fill="#FFFFFF"/><text fill="#212121" font-family="DejaVu Sans,Verdana,Arial" font-size="12" text-anchor="middle" x="400" y="258">Apply this tool's preconditions</text><path d="M400 284 400 310" stroke="#37474F" stroke-width="1.2" stroke-linejoin="round" fill="none"/><path d="M400 310 397.1 303.6 402.9 303.6Z" fill="#37474F"/><path d="M245 356 400 310 555 356 400 402Z" stroke="#37474F" stroke-width="1.2" fill="#FBE9E7"/><text fill="#212121" font-family="DejaVu Sans,Verdana,Arial" font-size="12" text-anchor="middle" x="400" y="356">Adding to the cart?</text><path d="M555 356 700 356" stroke="#37474F" stroke-width="1.2" stroke-linejoin="round" fill="none"/><path d="M700 356 693.6 353.1 693.6 358.9Z" fill="#37474F"/><rect x="596" y="329" width="26.9" height="18" fill="#FFFFFF"/><text fill="#455A64" font-family="DejaVu Sans,Verdana,Arial" font-size="12" x="600" y="338">yes</text><rect x="700" y="318" rx="3" ry="3" width="330" height="76" stroke="#37474F" stroke-width="1.2" fill="#FFFFFF"/><text fill="#212121" font-family="DejaVu Sans,Verdana,Arial" font-size="12" text-anchor="middle" x="865" y="340">Resolve every name against the</text><text fill="#212121" font-family="DejaVu Sans,Verdana,Arial" font-size="12" text-anchor="middle" x="865" y="356">menu (Figure 4.6), then repair</text><text fill="#212121" font-family="DejaVu Sans,Verdana,Arial" font-size="12" text-anchor="middle" x="865" y="372">the cart</text><path d="M400 402 400 434" stroke="#37474F" stroke-width="1.2" stroke-linejoin="round" fill="none"/><path d="M400 434 397.1 427.6 402.9 427.6Z" fill="#37474F"/><rect x="404" y="409" width="20.6" height="18" fill="#FFFFFF"/><text fill="#455A64" font-family="DejaVu Sans,Verdana,Arial" font-size="12" x="408" y="418">no</text><path d="M235 480 400 434 565 480 400 526Z" stroke="#37474F" stroke-width="1.2" fill="#FBE9E7"/><text fill="#212121" font-family="DejaVu Sans,Verdana,Arial" font-size="12" text-anchor="middle" x="400" y="480">Removing from the cart?</text><path d="M565 480 700 480" stroke="#37474F" stroke-width="1.2" stroke-linejoin="round" fill="none"/><path d="M700 480 693.6 477.1 693.6 482.9Z" fill="#37474F"/><rect x="596" y="453" width="26.9" height="18" fill="#FFFFFF"/><text fill="#455A64" font-family="DejaVu Sans,Verdana,Arial" font-size="12" x="600" y="462">yes</text><rect x="700" y="454" rx="3" ry="3" width="330" height="52" stroke="#37474F" stroke-width="1.2" fill="#FFFFFF"/><text fill="#212121" font-family="DejaVu Sans,Verdana,Arial" font-size="12" text-anchor="middle" x="865" y="472">Resolve the name against</text><text fill="#212121" font-family="DejaVu Sans,Verdana,Arial" font-size="12" text-anchor="middle" x="865" y="488">the current cart</text><path d="M400 526 400 556" stroke="#37474F" stroke-width="1.2" stroke-linejoin="round" fill="none"/><path d="M400 556 397.1 549.6 402.9 549.6Z" fill="#37474F"/><rect x="404" y="532" width="20.6" height="18" fill="#FFFFFF"/><text fill="#455A64" font-family="DejaVu Sans,Verdana,Arial" font-size="12" x="408" y="541">no</text><path d="M250 600 400 556 550 600 400 644Z" stroke="#37474F" stroke-width="1.2" fill="#FBE9E7"/><text fill="#212121" font-family="DejaVu Sans,Verdana,Arial" font-size="12" text-anchor="middle" x="400" y="600">Any errors?</text><path d="M1030 356 1080 356 1080 600 550 600" stroke="#37474F" stroke-width="1.2" stroke-linejoin="round" fill="none"/><path d="M550 600 556.4 597.1 556.4 602.9Z" fill="#37474F"/><path d="M865 506 865 600" stroke="#37474F" stroke-width="1.2" stroke-linejoin="round" fill="none"/><path d="M250 600 135 600 135 1030" stroke="#37474F" stroke-width="1.2" stroke-linejoin="round" fill="none"/><path d="M135 1030 132.1 1023.6 137.9 1023.6Z" fill="#37474F"/><rect x="212.8" y="573" width="33.2" height="18" fill="#FFFFFF"/><text fill="#455A64" font-family="DejaVu Sans,Verdana,Arial" font-size="12" text-anchor="end" x="242" y="582">none</text><path d="M400 644 400 686" stroke="#37474F" stroke-width="1.2" stroke-linejoin="round" fill="none"/><path d="M400 686 397.1 679.6 402.9 679.6Z" fill="#37474F"/><rect x="404" y="656" width="26.9" height="18" fill="#FFFFFF"/><text fill="#455A64" font-family="DejaVu Sans,Verdana,Arial" font-size="12" x="408" y="665">yes</text><rect x="230" y="686" rx="3" ry="3" width="340" height="56" stroke="#37474F" stroke-width="1.2" fill="#FFFFFF"/><text fill="#212121" font-family="DejaVu Sans,Verdana,Arial" font-size="12" text-anchor="middle" x="400" y="706">Count the attempt and write</text><text fill="#212121" font-family="DejaVu Sans,Verdana,Arial" font-size="12" text-anchor="middle" x="400" y="722">feedback naming the problem</text><path d="M400 742 400 768" stroke="#37474F" stroke-width="1.2" stroke-linejoin="round" fill="none"/><path d="M400 768 397.1 761.6 402.9 761.6Z" fill="#37474F"/><path d="M250 812 400 768 550 812 400 856Z" stroke="#37474F" stroke-width="1.2" fill="#FBE9E7"/><text fill="#212121" font-family="DejaVu Sans,Verdana,Arial" font-size="12" text-anchor="middle" x="400" y="812">Third failure in a row?</text><path d="M550 812 1025 812 1025 1030" stroke="#37474F" stroke-width="1.2" stroke-linejoin="round" fill="none"/><path d="M1025 1030 1022.1 1023.6 1027.9 1023.6Z" fill="#37474F"/><rect x="556" y="785" width="26.9" height="18" fill="#FFFFFF"/><text fill="#455A64" font-family="DejaVu Sans,Verdana,Arial" font-size="12" x="560" y="794">yes</text><path d="M400 856 400 894" stroke="#37474F" stroke-width="1.2" stroke-linejoin="round" fill="none"/><path d="M400 894 397.1 887.6 402.9 887.6Z" fill="#37474F"/><rect x="404" y="866" width="20.6" height="18" fill="#FFFFFF"/><text fill="#455A64" font-family="DejaVu Sans,Verdana,Arial" font-size="12" x="408" y="875">no</text><path d="M246 940 400 894 554 940 400 986Z" stroke="#37474F" stroke-width="1.2" fill="#FBE9E7"/><text fill="#212121" font-family="DejaVu Sans,Verdana,Arial" font-size="12" text-anchor="middle" x="400" y="932">A fact about the state,</text><text fill="#212121" font-family="DejaVu Sans,Verdana,Arial" font-size="12" text-anchor="middle" x="400" y="948">not a fault in the call?</text><path d="M554 940 695 940 695 1030" stroke="#37474F" stroke-width="1.2" stroke-linejoin="round" fill="none"/><path d="M695 1030 692.1 1023.6 697.9 1023.6Z" fill="#37474F"/><rect x="560" y="913" width="26.9" height="18" fill="#FFFFFF"/><text fill="#455A64" font-family="DejaVu Sans,Verdana,Arial" font-size="12" x="564" y="922">yes</text><path d="M400 986 400 1030" stroke="#37474F" stroke-width="1.2" stroke-linejoin="round" fill="none"/><path d="M400 1030 397.1 1023.6 402.9 1023.6Z" fill="#37474F"/><rect x="404" y="999" width="20.6" height="18" fill="#FFFFFF"/><text fill="#455A64" font-family="DejaVu Sans,Verdana,Arial" font-size="12" x="408" y="1008">no</text><rect x="15" y="1030" rx="30" ry="30" width="240" height="60" stroke="#37474F" stroke-width="1.2" fill="#C8E6C9"/><text fill="#212121" font-family="DejaVu Sans,Verdana,Arial" font-weight="700" font-size="13" text-anchor="middle" x="135" y="1050">Approved</text><text fill="#212121" font-family="DejaVu Sans,Verdana,Arial" font-size="11" text-anchor="middle" x="135" y="1070">the tool node runs the call</text><rect x="280" y="1030" rx="30" ry="30" width="240" height="60" stroke="#37474F" stroke-width="1.2" fill="#FFF9C4"/><text fill="#212121" font-family="DejaVu Sans,Verdana,Arial" font-weight="700" font-size="13" text-anchor="middle" x="400" y="1050">Back to the worker</text><text fill="#212121" font-family="DejaVu Sans,Verdana,Arial" font-size="11" text-anchor="middle" x="400" y="1070">with the feedback</text><rect x="560" y="1030" rx="30" ry="30" width="270" height="60" stroke="#37474F" stroke-width="1.2" fill="#FFE0B2"/><text fill="#212121" font-family="DejaVu Sans,Verdana,Arial" font-weight="700" font-size="13" text-anchor="middle" x="695" y="1050">Delegate to the chat worker</text><text fill="#212121" font-family="DejaVu Sans,Verdana,Arial" font-size="11" text-anchor="middle" x="695" y="1070">the turn ends at the validator</text><rect x="870" y="1030" rx="30" ry="30" width="310" height="60" stroke="#37474F" stroke-width="1.2" fill="#F8BBD0"/><text fill="#212121" font-family="DejaVu Sans,Verdana,Arial" font-weight="700" font-size="13" text-anchor="middle" x="1025" y="1050">Circuit breaker</text><text fill="#212121" font-family="DejaVu Sans,Verdana,Arial" font-size="11" text-anchor="middle" x="1025" y="1070">the guest hears an apology</text></svg>