<svg width="900" height="430" viewBox="0 0 900 430" xmlns="http://www.w3.org/2000/svg" xmlns:xlink="http://www.w3.org/1999/xlink" overflow="hidden"><rect x="0" y="0" width="900" height="430" fill="#FFFFFF"/><g font-family="Times New Roman,Times,Times New Roman" font-size="17"><text x="30" y="36">Which graph node consumes the turn</text><text x="30" y="62">Share of total measured turn time, with the node's own median and 95th percentile.</text><g text-anchor="end"><text x="200" y="126">response node</text><text x="200" y="178">order worker</text><text x="200" y="230">search worker</text><text x="200" y="282">classifier router</text><text x="200" y="334">tools</text></g><g stroke="#37474F" stroke-width="1.2" fill="#BBDEFB"><rect x="214" y="106" width="328" height="28"/><rect x="214" y="158" width="216" height="28"/><rect x="214" y="210" width="185" height="28"/><rect x="214" y="262" width="63" height="28"/><rect x="214" y="314" width="6" height="28"/></g><g font-weight="700" text-anchor="end"><text x="610" y="126">41.0 %</text><text x="610" y="178">27.0 %</text><text x="610" y="230">23.1 %</text><text x="610" y="282">7.9 %</text><text x="610" y="334">0.8 %</text></g><g><text x="630" y="126">p50 <tspan font-weight="700">0.01 s</tspan>    p95 <tspan font-weight="700">2.31 s</tspan></text><text x="630" y="178">p50 <tspan font-weight="700">0.94 s</tspan>    p95 <tspan font-weight="700">1.41 s</tspan></text><text x="630" y="230">p50 <tspan font-weight="700">0.71 s</tspan>    p95 <tspan font-weight="700">1.47 s</tspan></text><text x="630" y="282">p50 <tspan font-weight="700">0.01 s</tspan>    p95 <tspan font-weight="700">0.81 s</tspan></text><text x="630" y="334">p50 <tspan font-weight="700">0.02 s</tspan>    p95 <tspan font-weight="700">0.04 s</tspan></text></g><line x1="30" y1="376" x2="870" y2="376" stroke="#B0BEC5" stroke-width="0.8"/><text x="30" y="400">Below 0.5 % of the turn and omitted: chat worker, payment dispatch, state outcome, state updater, validator.</text></g></svg>