<svg width="1280" height="720" xmlns="http://www.w3.org/2000/svg" xmlns:xlink="http://www.w3.org/1999/xlink" overflow="hidden"><g><rect x="0" y="0" width="1280" height="720" fill="#FFFFFF"/><rect x="190" y="36" width="900" height="648" fill="#FFFFFF"/><path d="M520.5 60.4997C520.5 58.2908 522.291 56.5001 524.5 56.5001L816.5 56.5001C818.709 56.5001 820.5 58.2908 820.5 60.4997L820.5 96.5004C820.5 98.7093 818.709 100.5 816.5 100.5L524.5 100.5C522.291 100.5 520.5 98.7093 520.5 96.5004Z" stroke="#000000" stroke-width="1.30005" stroke-miterlimit="8" fill="#E8F5E9" fill-rule="evenodd"/><text font-family="Times New Roman,Times New Roman_MSFontService,Arial" font-weight="400" font-size="16" transform="translate(567.359 85)">Load saved map, set initial pose</text><path d="M230.5 134.496C230.5 130.08 234.08 126.5 238.496 126.5L1042.5 126.5C1046.92 126.5 1050.5 130.08 1050.5 134.496L1050.5 602.504C1050.5 606.92 1046.92 610.5 1042.5 610.5L238.496 610.5C234.08 610.5 230.5 606.92 230.5 602.504Z" stroke="#000000" stroke-width="1.30005" stroke-miterlimit="8" stroke-dasharray="6.82528 4.8752" fill="#FAFAFA" fill-rule="evenodd"/><text font-family="Times New Roman,Times New Roman_MSFontService,Arial" font-style="italic" font-weight="400" font-size="16" transform="translate(246 145)">Localization cycle</text><text font-family="Times New Roman,Times New Roman_MSFontService,Arial" font-style="italic" font-weight="400" font-size="16" transform="translate(367.333 145)">-</text><text font-family="Times New Roman,Times New Roman_MSFontService,Arial" font-style="italic" font-weight="400" font-size="16" transform="translate(376.667 145)">5 Hz</text><path d="M380.5 158.5C380.5 156.291 382.291 154.5 384.5 154.5L556.5 154.5C558.709 154.5 560.5 156.291 560.5 158.5L560.5 190.5C560.5 192.709 558.709 194.5 556.5 194.5L384.5 194.5C382.291 194.5 380.5 192.709 380.5 190.5Z" stroke="#000000" stroke-width="1.2" stroke-miterlimit="8" fill="#FFFFFF" fill-rule="evenodd"/><text font-family="Times New Roman,Times New Roman_MSFontService,Arial" font-weight="400" font-size="16" transform="translate(429.785 181)">LiDAR scan</text><path d="M680.5 158.5C680.5 156.291 682.291 154.5 684.5 154.5L856.5 154.5C858.709 154.5 860.5 156.291 860.5 158.5L860.5 190.5C860.5 192.709 858.709 194.5 856.5 194.5L684.5 194.5C682.291 194.5 680.5 192.709 680.5 190.5Z" stroke="#000000" stroke-width="1.2" stroke-miterlimit="8" fill="#FFFFFF" fill-rule="evenodd"/><text font-family="Times New Roman,Times New Roman_MSFontService,Arial" font-weight="400" font-size="16" transform="translate(720.02 181)">RGB</text><text font-family="Times New Roman,Times New Roman_MSFontService,Arial" font-weight="400" font-size="16" transform="translate(752.853 181)">-</text><text font-family="Times New Roman,Times New Roman_MSFontService,Arial" font-weight="400" font-size="16" transform="translate(758.186 181)">D camera</text><path d="M380.5 222.5C380.5 220.291 382.291 218.5 384.5 218.5L556.5 218.5C558.709 218.5 560.5 220.291 560.5 222.5L560.5 258.5C560.5 260.709 558.709 262.5 556.5 262.5L384.5 262.5C382.291 262.5 380.5 260.709 380.5 258.5Z" stroke="#000000" stroke-width="1.2" stroke-miterlimit="8" fill="#BBDEFB" fill-rule="evenodd"/><text font-family="Times New Roman,Times New Roman_MSFontService,Arial" font-weight="400" font-size="16" transform="translate(409.863 247)">ICP scan matching</text><path d="M580.5 222.5C580.5 220.291 582.291 218.5 584.5 218.5L756.5 218.5C758.709 218.5 760.5 220.291 760.5 222.5L760.5 258.5C760.5 260.709 758.709 262.5 756.5 262.5L584.5 262.5C582.291 262.5 580.5 260.709 580.5 258.5Z" stroke="#000000" stroke-width="1.2" stroke-miterlimit="8" fill="#BBDEFB" fill-rule="evenodd"/><text font-family="Times New Roman,Times New Roman_MSFontService,Arial" font-weight="400" font-size="16" transform="translate(611.16 247)">Visual recognition</text><path d="M780.5 222.5C780.5 220.291 782.291 218.5 784.5 218.5L956.5 218.5C958.709 218.5 960.5 220.291 960.5 222.5L960.5 258.5C960.5 260.709 958.709 262.5 956.5 262.5L784.5 262.5C782.291 262.5 780.5 260.709 780.5 258.5Z" stroke="#000000" stroke-width="1.2" stroke-miterlimit="8" fill="#BBDEFB" fill-rule="evenodd"/><text font-family="Times New Roman,Times New Roman_MSFontService,Arial" font-weight="400" font-size="16" transform="translate(816.02 247)">ArUco landmark</text><path d="M250.5 286.5C250.5 284.291 252.291 282.5 254.5 282.5L406.5 282.5C408.709 282.5 410.5 284.291 410.5 286.5L410.5 318.5C410.5 320.709 408.709 322.5 406.5 322.5L254.5 322.5C252.291 322.5 250.5 320.709 250.5 318.5Z" stroke="#000000" stroke-width="1.2" stroke-miterlimit="8" fill="#FFFFFF" fill-rule="evenodd"/><text font-family="Times New Roman,Times New Roman_MSFontService,Arial" font-weight="400" font-size="16" transform="translate(278.227 309)">Fused odometry</text><path d="M540.5 286.5C540.5 284.291 542.291 282.5 544.5 282.5L796.5 282.5C798.709 282.5 800.5 284.291 800.5 286.5L800.5 318.5C800.5 320.709 798.709 322.5 796.5 322.5L544.5 322.5C542.291 322.5 540.5 320.709 540.5 318.5Z" stroke="#000000" stroke-width="1.30005" stroke-miterlimit="8" fill="#FFFFFF" fill-rule="evenodd"/><text font-family="Times New Roman,Times New Roman_MSFontService,Arial" font-weight="400" font-size="16" transform="translate(604.02 309)">Candidate constraint</text><path d="M670.5 332.5 820.5 376.5 670.5 420.5 520.5 376.5Z" stroke="#000000" stroke-width="1.30005" stroke-miterlimit="8" fill="#FFF9C4" fill-rule="evenodd"/><text font-family="Times New Roman,Times New Roman_MSFontService,Arial" font-weight="400" font-size="16" transform="translate(610.402 383)">Graph error &lt; 3.0?</text><path d="M670.5 442.5 820.5 484.5 670.5 526.5 520.5 484.5Z" stroke="#000000" stroke-width="1.30005" stroke-miterlimit="8" fill="#FFF9C4" fill-rule="evenodd"/><text font-family="Times New Roman,Times New Roman_MSFontService,Arial" font-weight="400" font-size="16" transform="translate(576.238 493)">Matches last 30 odom poses?</text><path d="M845.5 460.5C845.5 458.291 847.291 456.5 849.5 456.5L1011.5 456.5C1013.71 456.5 1015.5 458.291 1015.5 460.5L1015.5 512.5C1015.5 514.709 1013.71 516.5 1011.5 516.5L849.5 516.5C847.291 516.5 845.5 514.709 845.5 512.5Z" stroke="#000000" stroke-width="1.2" stroke-miterlimit="8" fill="#FFEBEE" fill-rule="evenodd"/><text font-family="Times New Roman,Times New Roman_MSFontService,Arial" font-weight="400" font-size="16" transform="translate(869.574 481)">Discard constraint,</text><text font-family="Times New Roman,Times New Roman_MSFontService,Arial" font-weight="400" font-size="16" transform="translate(874.156 503)">keep previous TF</text><path d="M540.5 548.5C540.5 546.291 542.291 544.5 544.5 544.5L796.5 544.5C798.709 544.5 800.5 546.291 800.5 548.5L800.5 580.5C800.5 582.709 798.709 584.5 796.5 584.5L544.5 584.5C542.291 584.5 540.5 582.709 540.5 580.5Z" stroke="#000000" stroke-width="1.30005" stroke-miterlimit="8" fill="#FFFFFF" fill-rule="evenodd"/><text font-family="Times New Roman,Times New Roman_MSFontService,Arial" font-weight="400" font-size="16" transform="translate(593.578 571)">Re</text><text font-family="Times New Roman,Times New Roman_MSFontService,Arial" font-weight="400" font-size="16" transform="translate(611.411 571)">-</text><text font-family="Times New Roman,Times New Roman_MSFontService,Arial" font-weight="400" font-size="16" transform="translate(616.745 571)">optimize pose graph</text><path d="M540.5 628.5C540.5 626.291 542.291 624.5 544.5 624.5L796.5 624.5C798.709 624.5 800.5 626.291 800.5 628.5L800.5 664.501C800.5 666.709 798.709 668.5 796.5 668.5L544.5 668.5C542.291 668.5 540.5 666.709 540.5 664.501Z" stroke="#000000" stroke-width="1.30005" stroke-miterlimit="8" fill="#FFF3E0" fill-rule="evenodd"/><text font-family="Times New Roman,Times New Roman_MSFontService,Arial" font-weight="400" font-size="16" transform="translate(588.805 653)">Publish map → odom TF</text><path d="M470.5 136.5 770.5 136.5" stroke="#000000" stroke-width="1.4" stroke-miterlimit="8" fill="none" fill-rule="evenodd"/><path d="M471 136 471 148.02 469 148.02 469 136ZM475.53 140.524 470 150.005 464.47 140.524C464.191 140.047 464.352 139.435 464.829 139.156 465.307 138.878 465.919 139.039 466.197 139.516L470.864 147.516 469.136 147.516 473.803 139.516C474.081 139.039 474.693 138.878 475.171 139.156 475.648 139.435 475.809 140.047 475.53 140.524Z"/><path d="M771 136 771 148.02 769 148.02 769 136ZM775.53 140.524 770 150.005 764.47 140.524C764.191 140.047 764.352 139.435 764.829 139.156 765.307 138.878 765.919 139.039 766.197 139.516L770.864 147.516 769.136 147.516 773.803 139.516C774.081 139.039 774.693 138.878 775.171 139.156 775.648 139.435 775.809 140.047 775.53 140.524Z"/><path d="M471 194 471 212.02 469 212.02 469 194ZM475.53 204.524 470 214.005 464.47 204.524C464.191 204.047 464.352 203.435 464.829 203.156 465.307 202.878 465.919 203.039 466.197 203.516L470.864 211.516 469.136 211.516 473.803 203.516C474.081 203.039 474.693 202.878 475.171 203.156 475.648 203.435 475.809 204.047 475.53 204.524Z"/><path d="M771 194 771 206C771 206.552 770.552 207 770 207L670 207 671 206 671 216.02 669 216.02 669 206C669 205.448 669.448 205 670 205L770 205 769 206 769 194ZM675.53 208.524 670 218.005 664.47 208.524C664.191 208.047 664.352 207.434 664.829 207.156 665.307 206.878 665.919 207.039 666.197 207.516L670.864 215.516 669.136 215.516 673.803 207.516C674.081 207.039 674.693 206.878 675.171 207.156 675.648 207.434 675.809 208.047 675.53 208.524Z"/><path d="M771 194 771 206 770 205 870 205C870.552 205 871 205.448 871 206L871 216.02 869 216.02 869 206 870 207 770 207C769.448 207 769 206.552 769 206L769 194ZM875.53 208.524 870 218.005 864.47 208.524C864.191 208.047 864.352 207.434 864.829 207.156 865.307 206.878 865.919 207.039 866.197 207.516L870.864 215.516 869.136 215.516 873.803 207.516C874.081 207.039 874.693 206.878 875.171 207.156 875.648 207.434 875.809 208.047 875.53 208.524Z"/><path d="M471 262 471 272 470 271 610 271C610.552 271 611 271.448 611 272L611 276.02 609 276.02 609 272 610 273 470 273C469.448 273 469 272.552 469 272L469 262ZM615.53 268.524 610 278.005 604.47 268.524C604.191 268.047 604.352 267.435 604.829 267.156 605.307 266.878 605.919 267.039 606.197 267.516L610.864 275.516 609.136 275.516 613.803 267.516C614.081 267.039 614.693 266.878 615.171 267.156 615.648 267.435 615.809 268.047 615.53 268.524Z"/><path d="M671 262 671 276.02 669 276.02 669 262ZM675.53 268.524 670 278.005 664.47 268.524C664.191 268.047 664.352 267.435 664.829 267.156 665.307 266.878 665.919 267.039 666.197 267.516L670.864 275.516 669.136 275.516 673.803 267.516C674.081 267.039 674.693 266.878 675.171 267.156 675.648 267.435 675.809 268.047 675.53 268.524Z"/><path d="M871 262 871 272C871 272.552 870.552 273 870 273L730 273 731 272 731 276.02 729 276.02 729 272C729 271.448 729.448 271 730 271L870 271 869 272 869 262ZM735.53 268.524 730 278.005 724.47 268.524C724.191 268.047 724.352 267.435 724.829 267.156 725.307 266.878 725.919 267.039 726.197 267.516L730.864 275.516 729.136 275.516 733.803 267.516C734.081 267.039 734.693 266.878 735.171 267.156 735.648 267.435 735.809 268.047 735.53 268.524Z"/><path d="M411 303 535.02 303 535.02 305 411 305ZM527.524 298.47 537.005 304 527.524 309.53C527.047 309.809 526.435 309.648 526.156 309.171 525.878 308.693 526.039 308.081 526.516 307.803L534.516 303.136 534.516 304.864 526.516 300.197C526.039 299.919 525.878 299.307 526.156 298.829 526.435 298.352 527.047 298.191 527.524 298.47Z"/><path d="M331 322 331 486 330 485 514.02 485 514.02 487 330 487C329.448 487 329 486.552 329 486L329 322ZM506.524 480.47 516.005 486 506.524 491.53C506.047 491.809 505.435 491.648 505.156 491.171 504.878 490.693 505.039 490.081 505.516 489.803L513.516 485.136 513.516 486.864 505.516 482.197C505.039 481.919 504.878 481.307 505.156 480.829 505.435 480.352 506.047 480.191 506.524 480.47Z"/><text font-family="Times New Roman,Times New Roman_MSFontService,Arial" font-weight="400" font-size="13" transform="translate(433.822 296)">odometry links</text><text font-family="Times New Roman,Times New Roman_MSFontService,Arial" font-weight="400" font-size="13" transform="translate(391.779 479)">odom cache</text><path d="M670.5 322.5 670.5 328.5" stroke="#000000" stroke-width="1.4" stroke-miterlimit="8" fill="none" fill-rule="evenodd"/><path d="M671 420 671 436.02 669 436.02 669 420ZM675.53 428.524 670 438.005 664.47 428.524C664.191 428.047 664.352 427.435 664.829 427.156 665.307 426.878 665.919 427.039 666.197 427.516L670.864 435.516 669.136 435.516 673.803 427.516C674.081 427.039 674.693 426.878 675.171 427.156 675.648 427.435 675.809 428.047 675.53 428.524Z"/><path d="M671 530 671 538.02 669 538.02 669 530ZM675.53 530.524 670 540.005 664.47 530.524C664.191 530.047 664.352 529.435 664.829 529.156 665.307 528.878 665.919 529.039 666.197 529.516L670.864 537.516 669.136 537.516 673.803 529.516C674.081 529.039 674.693 528.878 675.171 529.156 675.648 529.435 675.809 530.047 675.53 530.524Z"/><path d="M820 375 930 375C930.552 375 931 375.448 931 376L931 450.02 929 450.02 929 376 930 377 820 377ZM935.53 442.524 930 452.005 924.47 442.524C924.191 442.047 924.352 441.435 924.829 441.156 925.307 440.878 925.919 441.039 926.197 441.516L930.864 449.516 929.136 449.516 933.803 441.516C934.081 441.039 934.693 440.878 935.171 441.156 935.648 441.435 935.809 442.047 935.53 442.524Z"/><path d="M823 482 842.02 482 842.02 484 823 484ZM834.524 477.47 844.005 483 834.524 488.53C834.047 488.809 833.435 488.648 833.156 488.171 832.878 487.693 833.039 487.081 833.516 486.803L841.516 482.136 841.516 483.864 833.516 479.197C833.039 478.919 832.878 478.307 833.156 477.829 833.435 477.352 834.047 477.191 834.524 477.47Z"/><text font-family="Times New Roman,Times New Roman_MSFontService,Arial" font-weight="400" font-size="14" transform="translate(682 439)">Yes</text><text font-family="Times New Roman,Times New Roman_MSFontService,Arial" font-weight="400" font-size="14" transform="translate(682 544)">Yes</text><text font-family="Times New Roman,Times New Roman_MSFontService,Arial" font-weight="400" font-size="14" transform="translate(836 370)">No</text><text font-family="Times New Roman,Times New Roman_MSFontService,Arial" font-weight="400" font-size="14" transform="translate(826 478)">No</text><path d="M671 584 671 618.02 669 618.02 669 584ZM675.53 610.524 670 620.005 664.47 610.524C664.191 610.047 664.352 609.435 664.829 609.156 665.307 608.878 665.919 609.039 666.197 609.516L670.864 617.516 669.136 617.516 673.803 609.516C674.081 609.039 674.693 608.878 675.171 609.156 675.648 609.435 675.809 610.047 675.53 610.524Z"/><path d="M800 563 1033 563 1032 564 1032 110 1033 111 677.977 111 677.977 109 1033 109C1033.55 109 1034 109.448 1034 110L1034 564C1034 564.552 1033.55 565 1033 565L800 565ZM685.476 115.53 675.995 110 685.476 104.47C685.953 104.191 686.565 104.352 686.844 104.829 687.122 105.307 686.961 105.919 686.484 106.197L678.484 110.864 678.484 109.136 686.484 113.803C686.961 114.081 687.122 114.693 686.844 115.171 686.565 115.648 685.953 115.809 685.476 115.53Z"/><path d="M1015.5 486.5 1033.5 486.5" stroke="#000000" stroke-width="1.4" stroke-miterlimit="8" fill="none" fill-rule="evenodd"/><path d="M1030 486C1030 484.343 1031.34 483 1033 483 1034.66 483 1036 484.343 1036 486 1036 487.657 1034.66 489 1033 489 1031.34 489 1030 487.657 1030 486Z" fill-rule="evenodd"/><text font-family="Times New Roman,Times New Roman_MSFontService,Arial" font-style="italic" font-weight="400" font-size="13" transform="translate(969.406 149)">next cycle</text><path d="M671 100 671 133.02 669 133.02 669 100ZM675.53 125.524 670 135.005 664.47 125.524C664.191 125.047 664.352 124.435 664.829 124.156 665.307 123.878 665.919 124.039 666.197 124.516L670.864 132.516 669.136 132.516 673.803 124.516C674.081 124.039 674.693 123.878 675.171 124.156 675.648 124.435 675.809 125.047 675.53 125.524Z"/></g></svg>