<svg width="900" height="600" viewBox="0 0 900 600" xmlns="http://www.w3.org/2000/svg" xmlns:xlink="http://www.w3.org/1999/xlink" overflow="hidden"><rect x="0" y="0" width="900" height="600" fill="#FFFFFF"/><g font-family="Times New Roman,Times,Times New Roman" font-size="17"><text x="30" y="36">Turn latency by intent class against the five-second budget</text><text x="30" y="62">Bar is the median, whisker reaches the 95th percentile.</text><g stroke="#B0BEC5" stroke-width="0.8"><line x1="210" y1="130" x2="210" y2="506"/><line x1="310" y1="130" x2="310" y2="506"/><line x1="410" y1="130" x2="410" y2="506"/><line x1="510" y1="130" x2="510" y2="506"/><line x1="610" y1="130" x2="610" y2="506"/></g><g text-anchor="middle"><text x="210" y="534">0 s</text><text x="310" y="534">1 s</text><text x="410" y="534">2 s</text><text x="510" y="534">3 s</text><text x="610" y="534">4 s</text><text x="710" y="534">5 s</text></g><line x1="710" y1="112" x2="710" y2="506" stroke="#C62828" stroke-width="1.6" stroke-dasharray="6 4"/><text text-anchor="middle" x="710" y="102">budget 5 s</text><g text-anchor="end"><text x="196" y="158">ORDER</text><text x="196" y="180">n = 10</text><text x="196" y="220">ORDER_CONFIRM</text><text x="196" y="242">n = 5</text><text x="196" y="282">SEARCH</text><text x="196" y="304">n = 15</text><text x="196" y="344">PAYMENT</text><text x="196" y="366">n = 10</text><text x="196" y="406">CHAT</text><text x="196" y="428">n = 10</text><text x="196" y="468">MULTI</text><text x="196" y="490">n = 10</text></g><g stroke="#37474F" stroke-width="1.2" fill="#BBDEFB"><rect x="210" y="148" width="96" height="26"/><rect x="210" y="210" width="145" height="26"/><rect x="210" y="272" width="272" height="26"/><rect x="210" y="334" width="32" height="26"/><rect x="210" y="396" width="121" height="26"/><rect x="210" y="458" width="269" height="26"/></g><g stroke="#37474F" stroke-width="1.2" fill="none"><path d="M306 161 311 161M311 154 311 168"/><path d="M355 223 356 223M356 216 356 230"/><path d="M482 285 527 285M527 278 527 292"/><path d="M242 347 317 347M317 340 317 354"/><path d="M331 409 526 409M526 402 526 416"/><path d="M479 471 733 471M733 464 733 478"/></g><g><text x="760" y="167">0.96 / 1.01 s</text><text x="760" y="229">1.45 / 1.46 s</text><text x="760" y="291">2.72 / 3.17 s</text><text x="760" y="353">0.32 / 1.07 s</text><text x="760" y="415">1.21 / 3.16 s</text><text x="760" y="477">2.69 / 5.23 s</text></g><line x1="30" y1="558" x2="870" y2="558" stroke="#B0BEC5" stroke-width="0.8"/><text x="30" y="582">All turns: p50 1.61 s, p95 4.13 s, n = 60.</text></g></svg>