# Generated by scripts/generate_invia_body.py
mtllib invia_body.mtl
o invia_picker_body
usemtl graphite_body
s 1
v 0.119000 0.066500 -0.119000
v 0.118569 0.071975 -0.119000
v 0.117287 0.077316 -0.119000
v 0.115185 0.082390 -0.119000
v 0.112316 0.087072 -0.119000
v 0.108749 0.091249 -0.119000
v 0.104572 0.094816 -0.119000
v 0.099890 0.097685 -0.119000
v 0.094816 0.099787 -0.119000
v 0.089475 0.101069 -0.119000
v -0.084000 0.101500 -0.119000
v -0.089475 0.101069 -0.119000
v -0.094816 0.099787 -0.119000
v -0.099890 0.097685 -0.119000
v -0.104572 0.094816 -0.119000
v -0.108749 0.091249 -0.119000
v -0.112316 0.087072 -0.119000
v -0.115185 0.082390 -0.119000
v -0.117287 0.077316 -0.119000
v -0.118569 0.071975 -0.119000
v -0.119000 -0.066500 -0.119000
v -0.118569 -0.071975 -0.119000
v -0.117287 -0.077316 -0.119000
v -0.115185 -0.082390 -0.119000
v -0.112316 -0.087072 -0.119000
v -0.108749 -0.091249 -0.119000
v -0.104572 -0.094816 -0.119000
v -0.099890 -0.097685 -0.119000
v -0.094816 -0.099787 -0.119000
v -0.089475 -0.101069 -0.119000
v 0.084000 -0.101500 -0.119000
v 0.089475 -0.101069 -0.119000
v 0.094816 -0.099787 -0.119000
v 0.099890 -0.097685 -0.119000
v 0.104572 -0.094816 -0.119000
v 0.108749 -0.091249 -0.119000
v 0.112316 -0.087072 -0.119000
v 0.115185 -0.082390 -0.119000
v 0.117287 -0.077316 -0.119000
v 0.118569 -0.071975 -0.119000
v 0.136500 0.073500 -0.087500
v 0.135983 0.080070 -0.087500
v 0.134444 0.086479 -0.087500
v 0.131922 0.092568 -0.087500
v 0.128479 0.098187 -0.087500
v 0.124198 0.103198 -0.087500
v 0.119187 0.107479 -0.087500
v 0.113568 0.110922 -0.087500
v 0.107479 0.113444 -0.087500
v 0.101070 0.114983 -0.087500
v -0.094500 0.115500 -0.087500
v -0.101070 0.114983 -0.087500
v -0.107479 0.113444 -0.087500
v -0.113568 0.110922 -0.087500
v -0.119187 0.107479 -0.087500
v -0.124198 0.103198 -0.087500
v -0.128479 0.098187 -0.087500
v -0.131922 0.092568 -0.087500
v -0.134444 0.086479 -0.087500
v -0.135983 0.080070 -0.087500
v -0.136500 -0.073500 -0.087500
v -0.135983 -0.080070 -0.087500
v -0.134444 -0.086479 -0.087500
v -0.131922 -0.092568 -0.087500
v -0.128479 -0.098187 -0.087500
v -0.124198 -0.103198 -0.087500
v -0.119187 -0.107479 -0.087500
v -0.113568 -0.110922 -0.087500
v -0.107479 -0.113444 -0.087500
v -0.101070 -0.114983 -0.087500
v 0.094500 -0.115500 -0.087500
v 0.101070 -0.114983 -0.087500
v 0.107479 -0.113444 -0.087500
v 0.113568 -0.110922 -0.087500
v 0.119187 -0.107479 -0.087500
v 0.124198 -0.103198 -0.087500
v 0.128479 -0.098187 -0.087500
v 0.131922 -0.092568 -0.087500
v 0.134444 -0.086479 -0.087500
v 0.135983 -0.080070 -0.087500
v 0.140000 0.074200 0.028000
v 0.139440 0.081318 0.028000
v 0.137773 0.088260 0.028000
v 0.135041 0.094857 0.028000
v 0.131310 0.100944 0.028000
v 0.126673 0.106373 0.028000
v 0.121244 0.111010 0.028000
v 0.115157 0.114741 0.028000
v 0.108560 0.117473 0.028000
v 0.101618 0.119140 0.028000
v -0.094500 0.119700 0.028000
v -0.101618 0.119140 0.028000
v -0.108560 0.117473 0.028000
v -0.115157 0.114741 0.028000
v -0.121244 0.111010 0.028000
v -0.126673 0.106373 0.028000
v -0.131310 0.100944 0.028000
v -0.135041 0.094857 0.028000
v -0.137773 0.088260 0.028000
v -0.139440 0.081318 0.028000
v -0.140000 -0.074200 0.028000
v -0.139440 -0.081318 0.028000
v -0.137773 -0.088260 0.028000
v -0.135041 -0.094857 0.028000
v -0.131310 -0.100944 0.028000
v -0.126673 -0.106373 0.028000
v -0.121244 -0.111010 0.028000
v -0.115157 -0.114741 0.028000
v -0.108560 -0.117473 0.028000
v -0.101618 -0.119140 0.028000
v 0.094500 -0.119700 0.028000
v 0.101618 -0.119140 0.028000
v 0.108560 -0.117473 0.028000
v 0.115157 -0.114741 0.028000
v 0.121244 -0.111010 0.028000
v 0.126673 -0.106373 0.028000
v 0.131310 -0.100944 0.028000
v 0.135041 -0.094857 0.028000
v 0.137773 -0.088260 0.028000
v 0.139440 -0.081318 0.028000
v 0.136500 0.073500 0.087500
v 0.135983 0.080070 0.087500
v 0.134444 0.086479 0.087500
v 0.131922 0.092568 0.087500
v 0.128479 0.098187 0.087500
v 0.124198 0.103198 0.087500
v 0.119187 0.107479 0.087500
v 0.113568 0.110922 0.087500
v 0.107479 0.113444 0.087500
v 0.101070 0.114983 0.087500
v -0.094500 0.115500 0.087500
v -0.101070 0.114983 0.087500
v -0.107479 0.113444 0.087500
v -0.113568 0.110922 0.087500
v -0.119187 0.107479 0.087500
v -0.124198 0.103198 0.087500
v -0.128479 0.098187 0.087500
v -0.131922 0.092568 0.087500
v -0.134444 0.086479 0.087500
v -0.135983 0.080070 0.087500
v -0.136500 -0.073500 0.087500
v -0.135983 -0.080070 0.087500
v -0.134444 -0.086479 0.087500
v -0.131922 -0.092568 0.087500
v -0.128479 -0.098187 0.087500
v -0.124198 -0.103198 0.087500
v -0.119187 -0.107479 0.087500
v -0.113568 -0.110922 0.087500
v -0.107479 -0.113444 0.087500
v -0.101070 -0.114983 0.087500
v 0.094500 -0.115500 0.087500
v 0.101070 -0.114983 0.087500
v 0.107479 -0.113444 0.087500
v 0.113568 -0.110922 0.087500
v 0.119187 -0.107479 0.087500
v 0.124198 -0.103198 0.087500
v 0.128479 -0.098187 0.087500
v 0.131922 -0.092568 0.087500
v 0.134444 -0.086479 0.087500
v 0.135983 -0.080070 0.087500
v 0.129500 0.072100 0.147000
v 0.129026 0.078123 0.147000
v 0.127616 0.083997 0.147000
v 0.125304 0.089579 0.147000
v 0.122147 0.094730 0.147000
v 0.118224 0.099324 0.147000
v 0.113630 0.103247 0.147000
v 0.108479 0.106404 0.147000
v 0.102897 0.108716 0.147000
v 0.097023 0.110126 0.147000
v -0.091000 0.110600 0.147000
v -0.097023 0.110126 0.147000
v -0.102897 0.108716 0.147000
v -0.108479 0.106404 0.147000
v -0.113630 0.103247 0.147000
v -0.118224 0.099324 0.147000
v -0.122147 0.094730 0.147000
v -0.125304 0.089579 0.147000
v -0.127616 0.083997 0.147000
v -0.129026 0.078123 0.147000
v -0.129500 -0.072100 0.147000
v -0.129026 -0.078123 0.147000
v -0.127616 -0.083997 0.147000
v -0.125304 -0.089579 0.147000
v -0.122147 -0.094730 0.147000
v -0.118224 -0.099324 0.147000
v -0.113630 -0.103247 0.147000
v -0.108479 -0.106404 0.147000
v -0.102897 -0.108716 0.147000
v -0.097023 -0.110126 0.147000
v 0.091000 -0.110600 0.147000
v 0.097023 -0.110126 0.147000
v 0.102897 -0.108716 0.147000
v 0.108479 -0.106404 0.147000
v 0.113630 -0.103247 0.147000
v 0.118224 -0.099324 0.147000
v 0.122147 -0.094730 0.147000
v 0.125304 -0.089579 0.147000
v 0.127616 -0.083997 0.147000
v 0.129026 -0.078123 0.147000
v 0.112000 0.066500 0.147000
v 0.111698 0.070333 0.147000
v 0.110801 0.074071 0.147000
v 0.109330 0.077623 0.147000
v 0.107321 0.080901 0.147000
v 0.104824 0.083824 0.147000
v 0.101901 0.086321 0.147000
v 0.098623 0.088330 0.147000
v 0.095071 0.089801 0.147000
v 0.091333 0.090698 0.147000
v -0.087500 0.091000 0.147000
v -0.091333 0.090698 0.147000
v -0.095071 0.089801 0.147000
v -0.098623 0.088330 0.147000
v -0.101901 0.086321 0.147000
v -0.104824 0.083824 0.147000
v -0.107321 0.080901 0.147000
v -0.109330 0.077623 0.147000
v -0.110801 0.074071 0.147000
v -0.111698 0.070333 0.147000
v -0.112000 -0.066500 0.147000
v -0.111698 -0.070333 0.147000
v -0.110801 -0.074071 0.147000
v -0.109330 -0.077623 0.147000
v -0.107321 -0.080901 0.147000
v -0.104824 -0.083824 0.147000
v -0.101901 -0.086321 0.147000
v -0.098623 -0.088330 0.147000
v -0.095071 -0.089801 0.147000
v -0.091333 -0.090698 0.147000
v 0.087500 -0.091000 0.147000
v 0.091333 -0.090698 0.147000
v 0.095071 -0.089801 0.147000
v 0.098623 -0.088330 0.147000
v 0.101901 -0.086321 0.147000
v 0.104824 -0.083824 0.147000
v 0.107321 -0.080901 0.147000
v 0.109330 -0.077623 0.147000
v 0.110801 -0.074071 0.147000
v 0.111698 -0.070333 0.147000
v 0.101500 0.059500 0.003500
v 0.101241 0.062785 0.003500
v 0.100472 0.065989 0.003500
v 0.099211 0.069034 0.003500
v 0.097489 0.071843 0.003500
v 0.095349 0.074349 0.003500
v 0.092843 0.076489 0.003500
v 0.090034 0.078211 0.003500
v 0.086989 0.079472 0.003500
v 0.083785 0.080241 0.003500
v -0.080500 0.080500 0.003500
v -0.083785 0.080241 0.003500
v -0.086989 0.079472 0.003500
v -0.090034 0.078211 0.003500
v -0.092843 0.076489 0.003500
v -0.095349 0.074349 0.003500
v -0.097489 0.071843 0.003500
v -0.099211 0.069034 0.003500
v -0.100472 0.065989 0.003500
v -0.101241 0.062785 0.003500
v -0.101500 -0.059500 0.003500
v -0.101241 -0.062785 0.003500
v -0.100472 -0.065989 0.003500
v -0.099211 -0.069034 0.003500
v -0.097489 -0.071843 0.003500
v -0.095349 -0.074349 0.003500
v -0.092843 -0.076489 0.003500
v -0.090034 -0.078211 0.003500
v -0.086989 -0.079472 0.003500
v -0.083785 -0.080241 0.003500
v 0.080500 -0.080500 0.003500
v 0.083785 -0.080241 0.003500
v 0.086989 -0.079472 0.003500
v 0.090034 -0.078211 0.003500
v 0.092843 -0.076489 0.003500
v 0.095349 -0.074349 0.003500
v 0.097489 -0.071843 0.003500
v 0.099211 -0.069034 0.003500
v 0.100472 -0.065989 0.003500
v 0.101241 -0.062785 0.003500
v 0.000000 0.000000 -0.119000
v 0.000000 0.000000 0.003500
f 1 2 42 41
f 2 3 43 42
f 3 4 44 43
f 4 5 45 44
f 5 6 46 45
f 6 7 47 46
f 7 8 48 47
f 8 9 49 48
f 9 10 50 49
f 10 11 51 50
f 11 12 52 51
f 12 13 53 52
f 13 14 54 53
f 14 15 55 54
f 15 16 56 55
f 16 17 57 56
f 17 18 58 57
f 18 19 59 58
f 19 20 60 59
f 20 21 61 60
f 21 22 62 61
f 22 23 63 62
f 23 24 64 63
f 24 25 65 64
f 25 26 66 65
f 26 27 67 66
f 27 28 68 67
f 28 29 69 68
f 29 30 70 69
f 30 31 71 70
f 31 32 72 71
f 32 33 73 72
f 33 34 74 73
f 34 35 75 74
f 35 36 76 75
f 36 37 77 76
f 37 38 78 77
f 38 39 79 78
f 39 40 80 79
f 40 1 41 80
f 41 42 82 81
f 42 43 83 82
f 43 44 84 83
f 44 45 85 84
f 45 46 86 85
f 46 47 87 86
f 47 48 88 87
f 48 49 89 88
f 49 50 90 89
f 50 51 91 90
f 51 52 92 91
f 52 53 93 92
f 53 54 94 93
f 54 55 95 94
f 55 56 96 95
f 56 57 97 96
f 57 58 98 97
f 58 59 99 98
f 59 60 100 99
f 60 61 101 100
f 61 62 102 101
f 62 63 103 102
f 63 64 104 103
f 64 65 105 104
f 65 66 106 105
f 66 67 107 106
f 67 68 108 107
f 68 69 109 108
f 69 70 110 109
f 70 71 111 110
f 71 72 112 111
f 72 73 113 112
f 73 74 114 113
f 74 75 115 114
f 75 76 116 115
f 76 77 117 116
f 77 78 118 117
f 78 79 119 118
f 79 80 120 119
f 80 41 81 120
f 81 82 122 121
f 82 83 123 122
f 83 84 124 123
f 84 85 125 124
f 85 86 126 125
f 86 87 127 126
f 87 88 128 127
f 88 89 129 128
f 89 90 130 129
f 90 91 131 130
f 91 92 132 131
f 92 93 133 132
f 93 94 134 133
f 94 95 135 134
f 95 96 136 135
f 96 97 137 136
f 97 98 138 137
f 98 99 139 138
f 99 100 140 139
f 100 101 141 140
f 101 102 142 141
f 102 103 143 142
f 103 104 144 143
f 104 105 145 144
f 105 106 146 145
f 106 107 147 146
f 107 108 148 147
f 108 109 149 148
f 109 110 150 149
f 110 111 151 150
f 111 112 152 151
f 112 113 153 152
f 113 114 154 153
f 114 115 155 154
f 115 116 156 155
f 116 117 157 156
f 117 118 158 157
f 118 119 159 158
f 119 120 160 159
f 120 81 121 160
f 121 122 162 161
f 122 123 163 162
f 123 124 164 163
f 124 125 165 164
f 125 126 166 165
f 126 127 167 166
f 127 128 168 167
f 128 129 169 168
f 129 130 170 169
f 130 131 171 170
f 131 132 172 171
f 132 133 173 172
f 133 134 174 173
f 134 135 175 174
f 135 136 176 175
f 136 137 177 176
f 137 138 178 177
f 138 139 179 178
f 139 140 180 179
f 140 141 181 180
f 141 142 182 181
f 142 143 183 182
f 143 144 184 183
f 144 145 185 184
f 145 146 186 185
f 146 147 187 186
f 147 148 188 187
f 148 149 189 188
f 149 150 190 189
f 150 151 191 190
f 151 152 192 191
f 152 153 193 192
f 153 154 194 193
f 154 155 195 194
f 155 156 196 195
f 156 157 197 196
f 157 158 198 197
f 158 159 199 198
f 159 160 200 199
f 160 121 161 200
f 161 162 202 201
f 162 163 203 202
f 163 164 204 203
f 164 165 205 204
f 165 166 206 205
f 166 167 207 206
f 167 168 208 207
f 168 169 209 208
f 169 170 210 209
f 170 171 211 210
f 171 172 212 211
f 172 173 213 212
f 173 174 214 213
f 174 175 215 214
f 175 176 216 215
f 176 177 217 216
f 177 178 218 217
f 178 179 219 218
f 179 180 220 219
f 180 181 221 220
f 181 182 222 221
f 182 183 223 222
f 183 184 224 223
f 184 185 225 224
f 185 186 226 225
f 186 187 227 226
f 187 188 228 227
f 188 189 229 228
f 189 190 230 229
f 190 191 231 230
f 191 192 232 231
f 192 193 233 232
f 193 194 234 233
f 194 195 235 234
f 195 196 236 235
f 196 197 237 236
f 197 198 238 237
f 198 199 239 238
f 199 200 240 239
f 200 161 201 240
f 201 241 242 202
f 202 242 243 203
f 203 243 244 204
f 204 244 245 205
f 205 245 246 206
f 206 246 247 207
f 207 247 248 208
f 208 248 249 209
f 209 249 250 210
f 210 250 251 211
f 211 251 252 212
f 212 252 253 213
f 213 253 254 214
f 214 254 255 215
f 215 255 256 216
f 216 256 257 217
f 217 257 258 218
f 218 258 259 219
f 219 259 260 220
f 220 260 261 221
f 221 261 262 222
f 222 262 263 223
f 223 263 264 224
f 224 264 265 225
f 225 265 266 226
f 226 266 267 227
f 227 267 268 228
f 228 268 269 229
f 229 269 270 230
f 230 270 271 231
f 231 271 272 232
f 232 272 273 233
f 233 273 274 234
f 234 274 275 235
f 235 275 276 236
f 236 276 277 237
f 237 277 278 238
f 238 278 279 239
f 239 279 280 240
f 240 280 241 201
f 281 2 1
f 282 241 242
f 281 3 2
f 282 242 243
f 281 4 3
f 282 243 244
f 281 5 4
f 282 244 245
f 281 6 5
f 282 245 246
f 281 7 6
f 282 246 247
f 281 8 7
f 282 247 248
f 281 9 8
f 282 248 249
f 281 10 9
f 282 249 250
f 281 11 10
f 282 250 251
f 281 12 11
f 282 251 252
f 281 13 12
f 282 252 253
f 281 14 13
f 282 253 254
f 281 15 14
f 282 254 255
f 281 16 15
f 282 255 256
f 281 17 16
f 282 256 257
f 281 18 17
f 282 257 258
f 281 19 18
f 282 258 259
f 281 20 19
f 282 259 260
f 281 21 20
f 282 260 261
f 281 22 21
f 282 261 262
f 281 23 22
f 282 262 263
f 281 24 23
f 282 263 264
f 281 25 24
f 282 264 265
f 281 26 25
f 282 265 266
f 281 27 26
f 282 266 267
f 281 28 27
f 282 267 268
f 281 29 28
f 282 268 269
f 281 30 29
f 282 269 270
f 281 31 30
f 282 270 271
f 281 32 31
f 282 271 272
f 281 33 32
f 282 272 273
f 281 34 33
f 282 273 274
f 281 35 34
f 282 274 275
f 281 36 35
f 282 275 276
f 281 37 36
f 282 276 277
f 281 38 37
f 282 277 278
f 281 39 38
f 282 278 279
f 281 40 39
f 282 279 280
f 281 1 40
f 282 280 241
