<?xml version="1.0" encoding="utf-8"?>
<COLLADA xmlns="http://www.collada.org/2005/11/COLLADASchema" version="1.4.1">
  <asset><unit meter="1" name="meter"/><up_axis>Z_UP</up_axis></asset>
  <library_effects>
    <effect id="graphite_body-effect"><profile_COMMON><technique sid="common"><phong>
      <emission><color>0 0 0 1</color></emission>
      <ambient><color>0.025 0.029 0.035 1</color></ambient>
      <diffuse><color>0.055 0.062 0.074 1</color></diffuse>
      <specular><color>0.42 0.42 0.45 1</color></specular>
      <shininess><float>64</float></shininess>
    </phong></technique></profile_COMMON></effect>
  </library_effects>
  <library_materials><material id="graphite_body" name="graphite_body"><instance_effect url="#graphite_body-effect"/></material></library_materials>
  <library_geometries><geometry id="invia_body-mesh" name="invia_body"><mesh>
    <source id="invia_body-positions"><float_array id="invia_body-positions-array" count="846">0.119000 0.066500 -0.119000 0.118569 0.071975 -0.119000 0.117287 0.077316 -0.119000 0.115185 0.082390 -0.119000 0.112316 0.087072 -0.119000 0.108749 0.091249 -0.119000 0.104572 0.094816 -0.119000 0.099890 0.097685 -0.119000 0.094816 0.099787 -0.119000 0.089475 0.101069 -0.119000 -0.084000 0.101500 -0.119000 -0.089475 0.101069 -0.119000 -0.094816 0.099787 -0.119000 -0.099890 0.097685 -0.119000 -0.104572 0.094816 -0.119000 -0.108749 0.091249 -0.119000 -0.112316 0.087072 -0.119000 -0.115185 0.082390 -0.119000 -0.117287 0.077316 -0.119000 -0.118569 0.071975 -0.119000 -0.119000 -0.066500 -0.119000 -0.118569 -0.071975 -0.119000 -0.117287 -0.077316 -0.119000 -0.115185 -0.082390 -0.119000 -0.112316 -0.087072 -0.119000 -0.108749 -0.091249 -0.119000 -0.104572 -0.094816 -0.119000 -0.099890 -0.097685 -0.119000 -0.094816 -0.099787 -0.119000 -0.089475 -0.101069 -0.119000 0.084000 -0.101500 -0.119000 0.089475 -0.101069 -0.119000 0.094816 -0.099787 -0.119000 0.099890 -0.097685 -0.119000 0.104572 -0.094816 -0.119000 0.108749 -0.091249 -0.119000 0.112316 -0.087072 -0.119000 0.115185 -0.082390 -0.119000 0.117287 -0.077316 -0.119000 0.118569 -0.071975 -0.119000 0.136500 0.073500 -0.087500 0.135983 0.080070 -0.087500 0.134444 0.086479 -0.087500 0.131922 0.092568 -0.087500 0.128479 0.098187 -0.087500 0.124198 0.103198 -0.087500 0.119187 0.107479 -0.087500 0.113568 0.110922 -0.087500 0.107479 0.113444 -0.087500 0.101070 0.114983 -0.087500 -0.094500 0.115500 -0.087500 -0.101070 0.114983 -0.087500 -0.107479 0.113444 -0.087500 -0.113568 0.110922 -0.087500 -0.119187 0.107479 -0.087500 -0.124198 0.103198 -0.087500 -0.128479 0.098187 -0.087500 -0.131922 0.092568 -0.087500 -0.134444 0.086479 -0.087500 -0.135983 0.080070 -0.087500 -0.136500 -0.073500 -0.087500 -0.135983 -0.080070 -0.087500 -0.134444 -0.086479 -0.087500 -0.131922 -0.092568 -0.087500 -0.128479 -0.098187 -0.087500 -0.124198 -0.103198 -0.087500 -0.119187 -0.107479 -0.087500 -0.113568 -0.110922 -0.087500 -0.107479 -0.113444 -0.087500 -0.101070 -0.114983 -0.087500 0.094500 -0.115500 -0.087500 0.101070 -0.114983 -0.087500 0.107479 -0.113444 -0.087500 0.113568 -0.110922 -0.087500 0.119187 -0.107479 -0.087500 0.124198 -0.103198 -0.087500 0.128479 -0.098187 -0.087500 0.131922 -0.092568 -0.087500 0.134444 -0.086479 -0.087500 0.135983 -0.080070 -0.087500 0.140000 0.074200 0.028000 0.139440 0.081318 0.028000 0.137773 0.088260 0.028000 0.135041 0.094857 0.028000 0.131310 0.100944 0.028000 0.126673 0.106373 0.028000 0.121244 0.111010 0.028000 0.115157 0.114741 0.028000 0.108560 0.117473 0.028000 0.101618 0.119140 0.028000 -0.094500 0.119700 0.028000 -0.101618 0.119140 0.028000 -0.108560 0.117473 0.028000 -0.115157 0.114741 0.028000 -0.121244 0.111010 0.028000 -0.126673 0.106373 0.028000 -0.131310 0.100944 0.028000 -0.135041 0.094857 0.028000 -0.137773 0.088260 0.028000 -0.139440 0.081318 0.028000 -0.140000 -0.074200 0.028000 -0.139440 -0.081318 0.028000 -0.137773 -0.088260 0.028000 -0.135041 -0.094857 0.028000 -0.131310 -0.100944 0.028000 -0.126673 -0.106373 0.028000 -0.121244 -0.111010 0.028000 -0.115157 -0.114741 0.028000 -0.108560 -0.117473 0.028000 -0.101618 -0.119140 0.028000 0.094500 -0.119700 0.028000 0.101618 -0.119140 0.028000 0.108560 -0.117473 0.028000 0.115157 -0.114741 0.028000 0.121244 -0.111010 0.028000 0.126673 -0.106373 0.028000 0.131310 -0.100944 0.028000 0.135041 -0.094857 0.028000 0.137773 -0.088260 0.028000 0.139440 -0.081318 0.028000 0.136500 0.073500 0.087500 0.135983 0.080070 0.087500 0.134444 0.086479 0.087500 0.131922 0.092568 0.087500 0.128479 0.098187 0.087500 0.124198 0.103198 0.087500 0.119187 0.107479 0.087500 0.113568 0.110922 0.087500 0.107479 0.113444 0.087500 0.101070 0.114983 0.087500 -0.094500 0.115500 0.087500 -0.101070 0.114983 0.087500 -0.107479 0.113444 0.087500 -0.113568 0.110922 0.087500 -0.119187 0.107479 0.087500 -0.124198 0.103198 0.087500 -0.128479 0.098187 0.087500 -0.131922 0.092568 0.087500 -0.134444 0.086479 0.087500 -0.135983 0.080070 0.087500 -0.136500 -0.073500 0.087500 -0.135983 -0.080070 0.087500 -0.134444 -0.086479 0.087500 -0.131922 -0.092568 0.087500 -0.128479 -0.098187 0.087500 -0.124198 -0.103198 0.087500 -0.119187 -0.107479 0.087500 -0.113568 -0.110922 0.087500 -0.107479 -0.113444 0.087500 -0.101070 -0.114983 0.087500 0.094500 -0.115500 0.087500 0.101070 -0.114983 0.087500 0.107479 -0.113444 0.087500 0.113568 -0.110922 0.087500 0.119187 -0.107479 0.087500 0.124198 -0.103198 0.087500 0.128479 -0.098187 0.087500 0.131922 -0.092568 0.087500 0.134444 -0.086479 0.087500 0.135983 -0.080070 0.087500 0.129500 0.072100 0.147000 0.129026 0.078123 0.147000 0.127616 0.083997 0.147000 0.125304 0.089579 0.147000 0.122147 0.094730 0.147000 0.118224 0.099324 0.147000 0.113630 0.103247 0.147000 0.108479 0.106404 0.147000 0.102897 0.108716 0.147000 0.097023 0.110126 0.147000 -0.091000 0.110600 0.147000 -0.097023 0.110126 0.147000 -0.102897 0.108716 0.147000 -0.108479 0.106404 0.147000 -0.113630 0.103247 0.147000 -0.118224 0.099324 0.147000 -0.122147 0.094730 0.147000 -0.125304 0.089579 0.147000 -0.127616 0.083997 0.147000 -0.129026 0.078123 0.147000 -0.129500 -0.072100 0.147000 -0.129026 -0.078123 0.147000 -0.127616 -0.083997 0.147000 -0.125304 -0.089579 0.147000 -0.122147 -0.094730 0.147000 -0.118224 -0.099324 0.147000 -0.113630 -0.103247 0.147000 -0.108479 -0.106404 0.147000 -0.102897 -0.108716 0.147000 -0.097023 -0.110126 0.147000 0.091000 -0.110600 0.147000 0.097023 -0.110126 0.147000 0.102897 -0.108716 0.147000 0.108479 -0.106404 0.147000 0.113630 -0.103247 0.147000 0.118224 -0.099324 0.147000 0.122147 -0.094730 0.147000 0.125304 -0.089579 0.147000 0.127616 -0.083997 0.147000 0.129026 -0.078123 0.147000 0.112000 0.066500 0.147000 0.111698 0.070333 0.147000 0.110801 0.074071 0.147000 0.109330 0.077623 0.147000 0.107321 0.080901 0.147000 0.104824 0.083824 0.147000 0.101901 0.086321 0.147000 0.098623 0.088330 0.147000 0.095071 0.089801 0.147000 0.091333 0.090698 0.147000 -0.087500 0.091000 0.147000 -0.091333 0.090698 0.147000 -0.095071 0.089801 0.147000 -0.098623 0.088330 0.147000 -0.101901 0.086321 0.147000 -0.104824 0.083824 0.147000 -0.107321 0.080901 0.147000 -0.109330 0.077623 0.147000 -0.110801 0.074071 0.147000 -0.111698 0.070333 0.147000 -0.112000 -0.066500 0.147000 -0.111698 -0.070333 0.147000 -0.110801 -0.074071 0.147000 -0.109330 -0.077623 0.147000 -0.107321 -0.080901 0.147000 -0.104824 -0.083824 0.147000 -0.101901 -0.086321 0.147000 -0.098623 -0.088330 0.147000 -0.095071 -0.089801 0.147000 -0.091333 -0.090698 0.147000 0.087500 -0.091000 0.147000 0.091333 -0.090698 0.147000 0.095071 -0.089801 0.147000 0.098623 -0.088330 0.147000 0.101901 -0.086321 0.147000 0.104824 -0.083824 0.147000 0.107321 -0.080901 0.147000 0.109330 -0.077623 0.147000 0.110801 -0.074071 0.147000 0.111698 -0.070333 0.147000 0.101500 0.059500 0.003500 0.101241 0.062785 0.003500 0.100472 0.065989 0.003500 0.099211 0.069034 0.003500 0.097489 0.071843 0.003500 0.095349 0.074349 0.003500 0.092843 0.076489 0.003500 0.090034 0.078211 0.003500 0.086989 0.079472 0.003500 0.083785 0.080241 0.003500 -0.080500 0.080500 0.003500 -0.083785 0.080241 0.003500 -0.086989 0.079472 0.003500 -0.090034 0.078211 0.003500 -0.092843 0.076489 0.003500 -0.095349 0.074349 0.003500 -0.097489 0.071843 0.003500 -0.099211 0.069034 0.003500 -0.100472 0.065989 0.003500 -0.101241 0.062785 0.003500 -0.101500 -0.059500 0.003500 -0.101241 -0.062785 0.003500 -0.100472 -0.065989 0.003500 -0.099211 -0.069034 0.003500 -0.097489 -0.071843 0.003500 -0.095349 -0.074349 0.003500 -0.092843 -0.076489 0.003500 -0.090034 -0.078211 0.003500 -0.086989 -0.079472 0.003500 -0.083785 -0.080241 0.003500 0.080500 -0.080500 0.003500 0.083785 -0.080241 0.003500 0.086989 -0.079472 0.003500 0.090034 -0.078211 0.003500 0.092843 -0.076489 0.003500 0.095349 -0.074349 0.003500 0.097489 -0.071843 0.003500 0.099211 -0.069034 0.003500 0.100472 -0.065989 0.003500 0.101241 -0.062785 0.003500 0.000000 0.000000 -0.119000 0.000000 0.000000 0.003500</float_array><technique_common><accessor source="#invia_body-positions-array" count="282" stride="3"><param name="X" type="float"/><param name="Y" type="float"/><param name="Z" type="float"/></accessor></technique_common></source>
    <source id="invia_body-normals"><float_array id="invia_body-normals-array" count="846">0.233239 0.000801 -0.972419 0.298465 0.056344 -0.952756 0.273282 0.097798 -0.956950 0.247626 0.135518 -0.959331 0.220958 0.170717 -0.960226 0.192652 0.204369 -0.959749 0.161941 0.237313 -0.957840 0.127839 0.270329 -0.954243 0.089011 0.304207 -0.948438 0.002675 0.449037 -0.893509 -0.000755 0.270892 -0.962609 -0.063197 0.334767 -0.940179 -0.106328 0.297119 -0.948902 -0.143086 0.261455 -0.954551 -0.175259 0.226837 -0.958034 -0.204114 0.192412 -0.959852 -0.230582 0.157349 -0.960246 -0.255377 0.120768 -0.959269 -0.279069 0.081656 -0.956793 -0.386148 0.002896 -0.922432 -0.233239 -0.000801 -0.972419 -0.298465 -0.056344 -0.952756 -0.273282 -0.097798 -0.956950 -0.247626 -0.135518 -0.959331 -0.220958 -0.170717 -0.960226 -0.192652 -0.204369 -0.959749 -0.161941 -0.237313 -0.957840 -0.127839 -0.270329 -0.954243 -0.089011 -0.304207 -0.948438 -0.002675 -0.449037 -0.893509 0.000755 -0.270892 -0.962609 0.063197 -0.334767 -0.940179 0.106328 -0.297119 -0.948902 0.143086 -0.261455 -0.954551 0.175259 -0.226837 -0.958034 0.204114 -0.192412 -0.959852 0.230582 -0.157349 -0.960246 0.255377 -0.120768 -0.959269 0.279069 -0.081656 -0.956793 0.386148 -0.002896 -0.922432 0.980196 0.001745 -0.198024 0.975051 0.171945 -0.140392 0.935439 0.322115 -0.145584 0.873097 0.464253 -0.148898 0.789558 0.594996 -0.150261 0.686825 0.711252 -0.149643 0.567327 0.810256 -0.147057 0.433878 0.889621 -0.142561 0.289629 0.947391 -0.136255 0.007726 0.996175 -0.087033 -0.001400 0.985822 -0.167791 -0.172290 0.977009 -0.125574 -0.322651 0.936994 -0.133933 -0.464818 0.874159 -0.140678 -0.595410 0.790108 -0.145656 -0.711348 0.686918 -0.148755 -0.809905 0.567081 -0.149907 -0.888757 0.433457 -0.149086 -0.946019 0.289209 -0.146310 -0.995360 0.009733 -0.095727 -0.980196 -0.001745 -0.198024 -0.975051 -0.171945 -0.140392 -0.935439 -0.322115 -0.145584 -0.873097 -0.464253 -0.148898 -0.789558 -0.594996 -0.150261 -0.686825 -0.711252 -0.149643 -0.567327 -0.810256 -0.147057 -0.433878 -0.889621 -0.142561 -0.289629 -0.947391 -0.136255 -0.007726 -0.996175 -0.087033 0.001400 -0.985822 -0.167791 0.172290 -0.977009 -0.125574 0.322651 -0.936994 -0.133933 0.464818 -0.874159 -0.140678 0.595410 -0.790108 -0.145656 0.711348 -0.686918 -0.148755 0.809905 -0.567081 -0.149907 0.888757 -0.433457 -0.149086 0.946019 -0.289209 -0.146310 0.995360 -0.009733 -0.095727 0.999940 -0.000621 -0.010907 0.988901 0.148575 0.000196 0.953484 0.301444 0.000189 0.894589 0.446890 0.000177 0.813666 0.581333 0.000161 0.712708 0.701461 0.000141 0.594201 0.804317 0.000117 0.461062 0.887368 0.000090 0.316571 0.948569 0.000061 0.012482 0.999785 0.016567 0.000495 0.999910 -0.013418 -0.148575 0.988901 -0.000031 -0.301444 0.953484 -0.000061 -0.446890 0.894589 -0.000090 -0.581333 0.813666 -0.000117 -0.701461 0.712708 -0.000141 -0.804317 0.594201 -0.000161 -0.887368 0.461062 -0.000177 -0.948569 0.316571 -0.000189 -0.999788 0.015612 0.013390 -0.999940 0.000621 -0.010907 -0.988901 -0.148575 0.000196 -0.953484 -0.301444 0.000189 -0.894589 -0.446890 0.000177 -0.813666 -0.581333 0.000161 -0.712708 -0.701461 0.000141 -0.594201 -0.804317 0.000117 -0.461062 -0.887368 0.000090 -0.316571 -0.948569 0.000061 -0.012482 -0.999785 0.016567 -0.000495 -0.999910 -0.013418 0.148575 -0.988901 -0.000031 0.301444 -0.953484 -0.000061 0.446890 -0.894589 -0.000090 0.581333 -0.813666 -0.000117 0.701461 -0.712708 -0.000141 0.804317 -0.594201 -0.000161 0.887368 -0.461062 -0.000177 0.948569 -0.316571 -0.000189 0.999788 -0.015612 0.013390 0.996900 -0.000178 0.078679 0.984068 0.153656 0.089445 0.947787 0.305665 0.090934 0.888244 0.450140 0.091634 0.806899 0.583556 0.091526 0.705736 0.702657 0.090613 0.587217 0.804531 0.088918 0.454229 0.886678 0.086480 0.310013 0.947071 0.083360 0.010407 0.996918 0.077756 0.000142 0.997240 0.074241 -0.153768 0.984783 0.080979 -0.305836 0.948316 0.084620 -0.450303 0.888566 0.087622 -0.583642 0.807018 0.089914 -0.702603 0.705682 0.091439 -0.804292 0.587043 0.092162 -0.886232 0.454001 0.092064 -0.946423 0.309800 0.091149 -0.995258 0.013041 0.096393 -0.996900 0.000178 0.078679 -0.984068 -0.153656 0.089445 -0.947787 -0.305665 0.090934 -0.888244 -0.450140 0.091634 -0.806899 -0.583556 0.091526 -0.705736 -0.702657 0.090613 -0.587217 -0.804531 0.088918 -0.454229 -0.886678 0.086480 -0.310013 -0.947071 0.083360 -0.010407 -0.996918 0.077756 -0.000142 -0.997240 0.074241 0.153768 -0.984783 0.080979 0.305836 -0.948316 0.084620 0.450303 -0.888566 0.087622 0.583642 -0.807018 0.089914 0.702603 -0.705682 0.091439 0.804292 -0.587043 0.092162 0.886232 -0.454001 0.092064 0.946423 -0.309800 0.091149 0.995258 -0.013041 0.096393 0.965573 -0.001612 0.260127 0.925673 0.120370 0.358664 0.891842 0.262634 0.368296 0.837303 0.397740 0.375134 0.763448 0.522918 0.379083 0.671947 0.635626 0.380089 0.564727 0.733549 0.378139 0.443969 0.814597 0.373260 0.312104 0.876920 0.365516 0.014039 0.821549 0.569965 0.001288 0.970272 0.242012 -0.120614 0.927551 0.353697 -0.263107 0.893449 0.364037 -0.398341 0.838567 0.371658 -0.523525 0.764334 0.376451 -0.636116 0.672464 0.378350 -0.733810 0.564929 0.377330 -0.814546 0.443941 0.373404 -0.876509 0.311958 0.366625 -0.839712 0.017687 0.542743 -0.965573 0.001612 0.260127 -0.925673 -0.120370 0.358664 -0.891842 -0.262634 0.368296 -0.837303 -0.397740 0.375134 -0.763448 -0.522918 0.379083 -0.671947 -0.635626 0.380089 -0.564727 -0.733549 0.378139 -0.443969 -0.814597 0.373260 -0.312104 -0.876920 0.365516 -0.014039 -0.821549 0.569965 -0.001288 -0.970272 0.242012 0.120614 -0.927551 0.353697 0.263107 -0.893449 0.364037 0.398341 -0.838567 0.371658 0.523525 -0.764334 0.376451 0.636116 -0.672464 0.378350 0.733810 -0.564929 0.377330 0.814546 -0.443941 0.373404 0.876509 -0.311958 0.366625 0.839712 -0.017687 0.542743 0.985510 0.001770 0.169606 0.980816 0.179174 0.076784 0.940632 0.330373 0.077885 0.877260 0.473394 0.079459 0.792275 0.604701 0.081467 0.687788 0.721052 0.083858 0.566391 0.819577 0.086574 0.431094 0.897853 0.089547 0.285249 0.953960 0.092703 0.004202 0.999991 0.000694 -0.001364 0.980969 0.194161 -0.178933 0.979500 0.092539 -0.330026 0.939644 0.090291 -0.473044 0.876612 0.088209 -0.604452 0.791949 0.086345 -0.720997 0.687736 0.084744 -0.819796 0.566543 0.083447 -0.898402 0.431358 0.082486 -0.954868 0.285520 0.081885 -0.999970 0.005545 -0.005389 -0.985510 -0.001770 0.169606 -0.980816 -0.179174 0.076784 -0.940632 -0.330373 0.077885 -0.877260 -0.473394 0.079459 -0.792275 -0.604701 0.081467 -0.687788 -0.721052 0.083858 -0.566391 -0.819577 0.086574 -0.431094 -0.897853 0.089547 -0.285249 -0.953960 0.092703 -0.004202 -0.999991 0.000694 0.001364 -0.980969 0.194161 0.178933 -0.979500 0.092539 0.330026 -0.939644 0.090291 0.473044 -0.876612 0.088209 0.604452 -0.791949 0.086345 0.720997 -0.687736 0.084744 0.819796 -0.566543 0.083447 0.898402 -0.431358 0.082486 0.954868 -0.285520 0.081885 0.999970 -0.005545 -0.005389 0.966537 -0.001111 0.256524 0.919553 0.118436 0.374694 0.883104 0.258893 0.391282 0.828034 0.392103 0.400767 0.755624 0.516209 0.403189 0.667041 0.629449 0.398561 0.563414 0.730003 0.386859 0.445959 0.815884 0.368040 0.316153 0.884887 0.342086 0.010148 0.902527 0.430513 0.000854 0.980898 0.194519 -0.121404 0.942593 0.311095 -0.264195 0.901191 0.343591 -0.397768 0.839998 0.369032 -0.520054 0.761252 0.387349 -0.629449 0.667041 0.398561 -0.724611 0.559253 0.402710 -0.804289 0.439621 0.399816 -0.867185 0.309829 0.389866 -0.851762 0.012690 0.523776 -0.966537 0.001111 0.256524 -0.919553 -0.118436 0.374694 -0.883104 -0.258893 0.391282 -0.828034 -0.392103 0.400767 -0.755624 -0.516209 0.403189 -0.667041 -0.629449 0.398561 -0.563414 -0.730003 0.386859 -0.445959 -0.815884 0.368040 -0.316153 -0.884887 0.342086 -0.010148 -0.902527 0.430513 -0.000854 -0.980898 0.194519 0.121404 -0.942593 0.311095 0.264195 -0.901191 0.343591 0.397768 -0.839998 0.369032 0.520054 -0.761252 0.387349 0.629449 -0.667041 0.398561 0.724611 -0.559253 0.402710 0.804289 -0.439621 0.399816 0.867185 -0.309829 0.389866 0.851762 -0.012690 0.523776 0.000000 0.000000 -1.000000 0.000000 0.000000 1.000000</float_array><technique_common><accessor source="#invia_body-normals-array" count="282" stride="3"><param name="X" type="float"/><param name="Y" type="float"/><param name="Z" type="float"/></accessor></technique_common></source>
    <vertices id="invia_body-vertices"><input semantic="POSITION" source="#invia_body-positions"/></vertices>
    <triangles material="graphite_body-symbol" count="560"><input semantic="VERTEX" source="#invia_body-vertices" offset="0"/><input semantic="NORMAL" source="#invia_body-normals" offset="1"/><p>0 0 1 1 41 41 0 0 41 41 40 40 1 1 2 2 42 42 1 1 42 42 41 41 2 2 3 3 43 43 2 2 43 43 42 42 3 3 4 4 44 44 3 3 44 44 43 43 4 4 5 5 45 45 4 4 45 45 44 44 5 5 6 6 46 46 5 5 46 46 45 45 6 6 7 7 47 47 6 6 47 47 46 46 7 7 8 8 48 48 7 7 48 48 47 47 8 8 9 9 49 49 8 8 49 49 48 48 9 9 10 10 50 50 9 9 50 50 49 49 10 10 11 11 51 51 10 10 51 51 50 50 11 11 12 12 52 52 11 11 52 52 51 51 12 12 13 13 53 53 12 12 53 53 52 52 13 13 14 14 54 54 13 13 54 54 53 53 14 14 15 15 55 55 14 14 55 55 54 54 15 15 16 16 56 56 15 15 56 56 55 55 16 16 17 17 57 57 16 16 57 57 56 56 17 17 18 18 58 58 17 17 58 58 57 57 18 18 19 19 59 59 18 18 59 59 58 58 19 19 20 20 60 60 19 19 60 60 59 59 20 20 21 21 61 61 20 20 61 61 60 60 21 21 22 22 62 62 21 21 62 62 61 61 22 22 23 23 63 63 22 22 63 63 62 62 23 23 24 24 64 64 23 23 64 64 63 63 24 24 25 25 65 65 24 24 65 65 64 64 25 25 26 26 66 66 25 25 66 66 65 65 26 26 27 27 67 67 26 26 67 67 66 66 27 27 28 28 68 68 27 27 68 68 67 67 28 28 29 29 69 69 28 28 69 69 68 68 29 29 30 30 70 70 29 29 70 70 69 69 30 30 31 31 71 71 30 30 71 71 70 70 31 31 32 32 72 72 31 31 72 72 71 71 32 32 33 33 73 73 32 32 73 73 72 72 33 33 34 34 74 74 33 33 74 74 73 73 34 34 35 35 75 75 34 34 75 75 74 74 35 35 36 36 76 76 35 35 76 76 75 75 36 36 37 37 77 77 36 36 77 77 76 76 37 37 38 38 78 78 37 37 78 78 77 77 38 38 39 39 79 79 38 38 79 79 78 78 39 39 0 0 40 40 39 39 40 40 79 79 40 40 41 41 81 81 40 40 81 81 80 80 41 41 42 42 82 82 41 41 82 82 81 81 42 42 43 43 83 83 42 42 83 83 82 82 43 43 44 44 84 84 43 43 84 84 83 83 44 44 45 45 85 85 44 44 85 85 84 84 45 45 46 46 86 86 45 45 86 86 85 85 46 46 47 47 87 87 46 46 87 87 86 86 47 47 48 48 88 88 47 47 88 88 87 87 48 48 49 49 89 89 48 48 89 89 88 88 49 49 50 50 90 90 49 49 90 90 89 89 50 50 51 51 91 91 50 50 91 91 90 90 51 51 52 52 92 92 51 51 92 92 91 91 52 52 53 53 93 93 52 52 93 93 92 92 53 53 54 54 94 94 53 53 94 94 93 93 54 54 55 55 95 95 54 54 95 95 94 94 55 55 56 56 96 96 55 55 96 96 95 95 56 56 57 57 97 97 56 56 97 97 96 96 57 57 58 58 98 98 57 57 98 98 97 97 58 58 59 59 99 99 58 58 99 99 98 98 59 59 60 60 100 100 59 59 100 100 99 99 60 60 61 61 101 101 60 60 101 101 100 100 61 61 62 62 102 102 61 61 102 102 101 101 62 62 63 63 103 103 62 62 103 103 102 102 63 63 64 64 104 104 63 63 104 104 103 103 64 64 65 65 105 105 64 64 105 105 104 104 65 65 66 66 106 106 65 65 106 106 105 105 66 66 67 67 107 107 66 66 107 107 106 106 67 67 68 68 108 108 67 67 108 108 107 107 68 68 69 69 109 109 68 68 109 109 108 108 69 69 70 70 110 110 69 69 110 110 109 109 70 70 71 71 111 111 70 70 111 111 110 110 71 71 72 72 112 112 71 71 112 112 111 111 72 72 73 73 113 113 72 72 113 113 112 112 73 73 74 74 114 114 73 73 114 114 113 113 74 74 75 75 115 115 74 74 115 115 114 114 75 75 76 76 116 116 75 75 116 116 115 115 76 76 77 77 117 117 76 76 117 117 116 116 77 77 78 78 118 118 77 77 118 118 117 117 78 78 79 79 119 119 78 78 119 119 118 118 79 79 40 40 80 80 79 79 80 80 119 119 80 80 81 81 121 121 80 80 121 121 120 120 81 81 82 82 122 122 81 81 122 122 121 121 82 82 83 83 123 123 82 82 123 123 122 122 83 83 84 84 124 124 83 83 124 124 123 123 84 84 85 85 125 125 84 84 125 125 124 124 85 85 86 86 126 126 85 85 126 126 125 125 86 86 87 87 127 127 86 86 127 127 126 126 87 87 88 88 128 128 87 87 128 128 127 127 88 88 89 89 129 129 88 88 129 129 128 128 89 89 90 90 130 130 89 89 130 130 129 129 90 90 91 91 131 131 90 90 131 131 130 130 91 91 92 92 132 132 91 91 132 132 131 131 92 92 93 93 133 133 92 92 133 133 132 132 93 93 94 94 134 134 93 93 134 134 133 133 94 94 95 95 135 135 94 94 135 135 134 134 95 95 96 96 136 136 95 95 136 136 135 135 96 96 97 97 137 137 96 96 137 137 136 136 97 97 98 98 138 138 97 97 138 138 137 137 98 98 99 99 139 139 98 98 139 139 138 138 99 99 100 100 140 140 99 99 140 140 139 139 100 100 101 101 141 141 100 100 141 141 140 140 101 101 102 102 142 142 101 101 142 142 141 141 102 102 103 103 143 143 102 102 143 143 142 142 103 103 104 104 144 144 103 103 144 144 143 143 104 104 105 105 145 145 104 104 145 145 144 144 105 105 106 106 146 146 105 105 146 146 145 145 106 106 107 107 147 147 106 106 147 147 146 146 107 107 108 108 148 148 107 107 148 148 147 147 108 108 109 109 149 149 108 108 149 149 148 148 109 109 110 110 150 150 109 109 150 150 149 149 110 110 111 111 151 151 110 110 151 151 150 150 111 111 112 112 152 152 111 111 152 152 151 151 112 112 113 113 153 153 112 112 153 153 152 152 113 113 114 114 154 154 113 113 154 154 153 153 114 114 115 115 155 155 114 114 155 155 154 154 115 115 116 116 156 156 115 115 156 156 155 155 116 116 117 117 157 157 116 116 157 157 156 156 117 117 118 118 158 158 117 117 158 158 157 157 118 118 119 119 159 159 118 118 159 159 158 158 119 119 80 80 120 120 119 119 120 120 159 159 120 120 121 121 161 161 120 120 161 161 160 160 121 121 122 122 162 162 121 121 162 162 161 161 122 122 123 123 163 163 122 122 163 163 162 162 123 123 124 124 164 164 123 123 164 164 163 163 124 124 125 125 165 165 124 124 165 165 164 164 125 125 126 126 166 166 125 125 166 166 165 165 126 126 127 127 167 167 126 126 167 167 166 166 127 127 128 128 168 168 127 127 168 168 167 167 128 128 129 129 169 169 128 128 169 169 168 168 129 129 130 130 170 170 129 129 170 170 169 169 130 130 131 131 171 171 130 130 171 171 170 170 131 131 132 132 172 172 131 131 172 172 171 171 132 132 133 133 173 173 132 132 173 173 172 172 133 133 134 134 174 174 133 133 174 174 173 173 134 134 135 135 175 175 134 134 175 175 174 174 135 135 136 136 176 176 135 135 176 176 175 175 136 136 137 137 177 177 136 136 177 177 176 176 137 137 138 138 178 178 137 137 178 178 177 177 138 138 139 139 179 179 138 138 179 179 178 178 139 139 140 140 180 180 139 139 180 180 179 179 140 140 141 141 181 181 140 140 181 181 180 180 141 141 142 142 182 182 141 141 182 182 181 181 142 142 143 143 183 183 142 142 183 183 182 182 143 143 144 144 184 184 143 143 184 184 183 183 144 144 145 145 185 185 144 144 185 185 184 184 145 145 146 146 186 186 145 145 186 186 185 185 146 146 147 147 187 187 146 146 187 187 186 186 147 147 148 148 188 188 147 147 188 188 187 187 148 148 149 149 189 189 148 148 189 189 188 188 149 149 150 150 190 190 149 149 190 190 189 189 150 150 151 151 191 191 150 150 191 191 190 190 151 151 152 152 192 192 151 151 192 192 191 191 152 152 153 153 193 193 152 152 193 193 192 192 153 153 154 154 194 194 153 153 194 194 193 193 154 154 155 155 195 195 154 154 195 195 194 194 155 155 156 156 196 196 155 155 196 196 195 195 156 156 157 157 197 197 156 156 197 197 196 196 157 157 158 158 198 198 157 157 198 198 197 197 158 158 159 159 199 199 158 158 199 199 198 198 159 159 120 120 160 160 159 159 160 160 199 199 160 160 161 161 201 201 160 160 201 201 200 200 161 161 162 162 202 202 161 161 202 202 201 201 162 162 163 163 203 203 162 162 203 203 202 202 163 163 164 164 204 204 163 163 204 204 203 203 164 164 165 165 205 205 164 164 205 205 204 204 165 165 166 166 206 206 165 165 206 206 205 205 166 166 167 167 207 207 166 166 207 207 206 206 167 167 168 168 208 208 167 167 208 208 207 207 168 168 169 169 209 209 168 168 209 209 208 208 169 169 170 170 210 210 169 169 210 210 209 209 170 170 171 171 211 211 170 170 211 211 210 210 171 171 172 172 212 212 171 171 212 212 211 211 172 172 173 173 213 213 172 172 213 213 212 212 173 173 174 174 214 214 173 173 214 214 213 213 174 174 175 175 215 215 174 174 215 215 214 214 175 175 176 176 216 216 175 175 216 216 215 215 176 176 177 177 217 217 176 176 217 217 216 216 177 177 178 178 218 218 177 177 218 218 217 217 178 178 179 179 219 219 178 178 219 219 218 218 179 179 180 180 220 220 179 179 220 220 219 219 180 180 181 181 221 221 180 180 221 221 220 220 181 181 182 182 222 222 181 181 222 222 221 221 182 182 183 183 223 223 182 182 223 223 222 222 183 183 184 184 224 224 183 183 224 224 223 223 184 184 185 185 225 225 184 184 225 225 224 224 185 185 186 186 226 226 185 185 226 226 225 225 186 186 187 187 227 227 186 186 227 227 226 226 187 187 188 188 228 228 187 187 228 228 227 227 188 188 189 189 229 229 188 188 229 229 228 228 189 189 190 190 230 230 189 189 230 230 229 229 190 190 191 191 231 231 190 190 231 231 230 230 191 191 192 192 232 232 191 191 232 232 231 231 192 192 193 193 233 233 192 192 233 233 232 232 193 193 194 194 234 234 193 193 234 234 233 233 194 194 195 195 235 235 194 194 235 235 234 234 195 195 196 196 236 236 195 195 236 236 235 235 196 196 197 197 237 237 196 196 237 237 236 236 197 197 198 198 238 238 197 197 238 238 237 237 198 198 199 199 239 239 198 198 239 239 238 238 199 199 160 160 200 200 199 199 200 200 239 239 200 200 240 240 241 241 200 200 241 241 201 201 201 201 241 241 242 242 201 201 242 242 202 202 202 202 242 242 243 243 202 202 243 243 203 203 203 203 243 243 244 244 203 203 244 244 204 204 204 204 244 244 245 245 204 204 245 245 205 205 205 205 245 245 246 246 205 205 246 246 206 206 206 206 246 246 247 247 206 206 247 247 207 207 207 207 247 247 248 248 207 207 248 248 208 208 208 208 248 248 249 249 208 208 249 249 209 209 209 209 249 249 250 250 209 209 250 250 210 210 210 210 250 250 251 251 210 210 251 251 211 211 211 211 251 251 252 252 211 211 252 252 212 212 212 212 252 252 253 253 212 212 253 253 213 213 213 213 253 253 254 254 213 213 254 254 214 214 214 214 254 254 255 255 214 214 255 255 215 215 215 215 255 255 256 256 215 215 256 256 216 216 216 216 256 256 257 257 216 216 257 257 217 217 217 217 257 257 258 258 217 217 258 258 218 218 218 218 258 258 259 259 218 218 259 259 219 219 219 219 259 259 260 260 219 219 260 260 220 220 220 220 260 260 261 261 220 220 261 261 221 221 221 221 261 261 262 262 221 221 262 262 222 222 222 222 262 262 263 263 222 222 263 263 223 223 223 223 263 263 264 264 223 223 264 264 224 224 224 224 264 264 265 265 224 224 265 265 225 225 225 225 265 265 266 266 225 225 266 266 226 226 226 226 266 266 267 267 226 226 267 267 227 227 227 227 267 267 268 268 227 227 268 268 228 228 228 228 268 268 269 269 228 228 269 269 229 229 229 229 269 269 270 270 229 229 270 270 230 230 230 230 270 270 271 271 230 230 271 271 231 231 231 231 271 271 272 272 231 231 272 272 232 232 232 232 272 272 273 273 232 232 273 273 233 233 233 233 273 273 274 274 233 233 274 274 234 234 234 234 274 274 275 275 234 234 275 275 235 235 235 235 275 275 276 276 235 235 276 276 236 236 236 236 276 276 277 277 236 236 277 277 237 237 237 237 277 277 278 278 237 237 278 278 238 238 238 238 278 278 279 279 238 238 279 279 239 239 239 239 279 279 240 240 239 239 240 240 200 200 280 280 1 1 0 0 281 281 240 240 241 241 280 280 2 2 1 1 281 281 241 241 242 242 280 280 3 3 2 2 281 281 242 242 243 243 280 280 4 4 3 3 281 281 243 243 244 244 280 280 5 5 4 4 281 281 244 244 245 245 280 280 6 6 5 5 281 281 245 245 246 246 280 280 7 7 6 6 281 281 246 246 247 247 280 280 8 8 7 7 281 281 247 247 248 248 280 280 9 9 8 8 281 281 248 248 249 249 280 280 10 10 9 9 281 281 249 249 250 250 280 280 11 11 10 10 281 281 250 250 251 251 280 280 12 12 11 11 281 281 251 251 252 252 280 280 13 13 12 12 281 281 252 252 253 253 280 280 14 14 13 13 281 281 253 253 254 254 280 280 15 15 14 14 281 281 254 254 255 255 280 280 16 16 15 15 281 281 255 255 256 256 280 280 17 17 16 16 281 281 256 256 257 257 280 280 18 18 17 17 281 281 257 257 258 258 280 280 19 19 18 18 281 281 258 258 259 259 280 280 20 20 19 19 281 281 259 259 260 260 280 280 21 21 20 20 281 281 260 260 261 261 280 280 22 22 21 21 281 281 261 261 262 262 280 280 23 23 22 22 281 281 262 262 263 263 280 280 24 24 23 23 281 281 263 263 264 264 280 280 25 25 24 24 281 281 264 264 265 265 280 280 26 26 25 25 281 281 265 265 266 266 280 280 27 27 26 26 281 281 266 266 267 267 280 280 28 28 27 27 281 281 267 267 268 268 280 280 29 29 28 28 281 281 268 268 269 269 280 280 30 30 29 29 281 281 269 269 270 270 280 280 31 31 30 30 281 281 270 270 271 271 280 280 32 32 31 31 281 281 271 271 272 272 280 280 33 33 32 32 281 281 272 272 273 273 280 280 34 34 33 33 281 281 273 273 274 274 280 280 35 35 34 34 281 281 274 274 275 275 280 280 36 36 35 35 281 281 275 275 276 276 280 280 37 37 36 36 281 281 276 276 277 277 280 280 38 38 37 37 281 281 277 277 278 278 280 280 39 39 38 38 281 281 278 278 279 279 280 280 0 0 39 39 281 281 279 279 240 240</p></triangles>
  </mesh></geometry></library_geometries>
  <library_visual_scenes><visual_scene id="Scene" name="Scene"><node id="invia_body" name="invia_body"><instance_geometry url="#invia_body-mesh"><bind_material><technique_common><instance_material symbol="graphite_body-symbol" target="#graphite_body"/></technique_common></bind_material></instance_geometry></node></visual_scene></library_visual_scenes>
  <scene><instance_visual_scene url="#Scene"/></scene>
</COLLADA>
