<?xml version="1.0" encoding="utf-8"?>
<COLLADA xmlns="http://www.collada.org/2005/11/COLLADASchema" version="1.4.1">
  <asset><unit meter="1" name="meter"/><up_axis>Z_UP</up_axis></asset>
  <library_effects>
    <effect id="black_bumper-effect"><profile_COMMON><technique sid="common"><phong>
      <emission><color>0 0 0 1</color></emission>
      <ambient><color>0.006 0.007 0.009 1</color></ambient>
      <diffuse><color>0.012 0.014 0.018 1</color></diffuse>
      <specular><color>0.24 0.24 0.26 1</color></specular>
      <shininess><float>64</float></shininess>
    </phong></technique></profile_COMMON></effect>
  </library_effects>
  <library_materials><material id="black_bumper" name="black_bumper"><instance_effect url="#black_bumper-effect"/></material></library_materials>
  <library_geometries><geometry id="invia_bumper-mesh" name="invia_bumper"><mesh>
    <source id="invia_bumper-positions"><float_array id="invia_bumper-positions-array" count="246">0.122500 0.068600 -0.122500 0.122052 0.074294 -0.122500 0.120718 0.079848 -0.122500 0.118533 0.085125 -0.122500 0.115548 0.089995 -0.122500 0.111839 0.094339 -0.122500 0.107495 0.098048 -0.122500 0.102625 0.101033 -0.122500 0.097348 0.103218 -0.122500 0.091794 0.104552 -0.122500 -0.086100 0.105000 -0.122500 -0.091794 0.104552 -0.122500 -0.097348 0.103218 -0.122500 -0.102625 0.101033 -0.122500 -0.107495 0.098048 -0.122500 -0.111839 0.094339 -0.122500 -0.115548 0.089995 -0.122500 -0.118533 0.085125 -0.122500 -0.120718 0.079848 -0.122500 -0.122052 0.074294 -0.122500 -0.122500 -0.068600 -0.122500 -0.122052 -0.074294 -0.122500 -0.120718 -0.079848 -0.122500 -0.118533 -0.085125 -0.122500 -0.115548 -0.089995 -0.122500 -0.111839 -0.094339 -0.122500 -0.107495 -0.098048 -0.122500 -0.102625 -0.101033 -0.122500 -0.097348 -0.103218 -0.122500 -0.091794 -0.104552 -0.122500 0.086100 -0.105000 -0.122500 0.091794 -0.104552 -0.122500 0.097348 -0.103218 -0.122500 0.102625 -0.101033 -0.122500 0.107495 -0.098048 -0.122500 0.111839 -0.094339 -0.122500 0.115548 -0.089995 -0.122500 0.118533 -0.085125 -0.122500 0.120718 -0.079848 -0.122500 0.122052 -0.074294 -0.122500 0.143500 0.079100 -0.080500 0.142966 0.085889 -0.080500 0.141376 0.092511 -0.080500 0.138770 0.098803 -0.080500 0.135211 0.104610 -0.080500 0.130788 0.109788 -0.080500 0.125610 0.114211 -0.080500 0.119803 0.117770 -0.080500 0.113511 0.120376 -0.080500 0.106889 0.121966 -0.080500 -0.100100 0.122500 -0.080500 -0.106889 0.121966 -0.080500 -0.113511 0.120376 -0.080500 -0.119803 0.117770 -0.080500 -0.125610 0.114211 -0.080500 -0.130788 0.109788 -0.080500 -0.135211 0.104610 -0.080500 -0.138770 0.098803 -0.080500 -0.141376 0.092511 -0.080500 -0.142966 0.085889 -0.080500 -0.143500 -0.079100 -0.080500 -0.142966 -0.085889 -0.080500 -0.141376 -0.092511 -0.080500 -0.138770 -0.098803 -0.080500 -0.135211 -0.104610 -0.080500 -0.130788 -0.109788 -0.080500 -0.125610 -0.114211 -0.080500 -0.119803 -0.117770 -0.080500 -0.113511 -0.120376 -0.080500 -0.106889 -0.121966 -0.080500 0.100100 -0.122500 -0.080500 0.106889 -0.121966 -0.080500 0.113511 -0.120376 -0.080500 0.119803 -0.117770 -0.080500 0.125610 -0.114211 -0.080500 0.130788 -0.109788 -0.080500 0.135211 -0.104610 -0.080500 0.138770 -0.098803 -0.080500 0.141376 -0.092511 -0.080500 0.142966 -0.085889 -0.080500 0.000000 0.000000 -0.122500 0.000000 0.000000 -0.080500</float_array><technique_common><accessor source="#invia_bumper-positions-array" count="82" stride="3"><param name="X" type="float"/><param name="Y" type="float"/><param name="Z" type="float"/></accessor></technique_common></source>
    <source id="invia_bumper-normals"><float_array id="invia_bumper-normals-array" count="246">0.290808 0.001000 -0.956781 0.363546 0.068586 -0.929048 0.333040 0.119139 -0.935356 0.301745 0.165089 -0.938986 0.269091 0.207855 -0.940418 0.234374 0.248570 -0.939831 0.196710 0.288190 -0.937151 0.154955 0.327568 -0.932034 0.107580 0.367505 -0.923778 0.003149 0.530836 -0.847469 -0.000936 0.333331 -0.942809 -0.075916 0.402399 -0.912311 -0.128341 0.358763 -0.924564 -0.173297 0.316747 -0.932545 -0.212796 0.275488 -0.937456 -0.248294 0.234113 -0.939969 -0.280869 0.191713 -0.940404 -0.311343 0.147280 -0.938815 -0.340355 0.099632 -0.935004 -0.468339 0.003460 -0.883542 -0.290808 -0.001000 -0.956781 -0.363546 -0.068586 -0.929048 -0.333040 -0.119139 -0.935356 -0.301745 -0.165089 -0.938986 -0.269091 -0.207855 -0.940418 -0.234374 -0.248570 -0.939831 -0.196710 -0.288190 -0.937151 -0.154955 -0.327568 -0.932034 -0.107580 -0.367505 -0.923778 -0.003149 -0.530836 -0.847469 0.000936 -0.333331 -0.942809 0.075916 -0.402399 -0.912311 0.128341 -0.358763 -0.924564 0.173297 -0.316747 -0.932545 0.212796 -0.275488 -0.937456 0.248294 -0.234113 -0.939969 0.280869 -0.191713 -0.940404 0.311343 -0.147280 -0.938815 0.340355 -0.099632 -0.935004 0.468339 -0.003460 -0.883542 0.590787 -0.000841 0.806827 0.432277 0.058200 0.899861 0.399931 0.119741 0.908690 0.365998 0.175891 0.913842 0.330026 0.228248 0.915961 0.291346 0.278105 0.915301 0.249048 0.326543 0.911781 0.201917 0.374498 0.904976 0.148324 0.422789 0.894008 0.005994 0.379918 0.925001 0.000741 0.647864 0.761756 -0.063668 0.472890 0.878818 -0.127941 0.427317 0.895004 -0.183688 0.382222 0.905630 -0.233102 0.337045 0.912175 -0.277824 0.291052 0.915479 -0.319095 0.243367 0.915942 -0.357868 0.192950 0.913620 -0.394871 0.138530 0.908232 -0.334378 0.006526 0.942416 -0.590787 0.000841 0.806827 -0.432277 -0.058200 0.899861 -0.399931 -0.119741 0.908690 -0.365998 -0.175891 0.913842 -0.330026 -0.228248 0.915961 -0.291346 -0.278105 0.915301 -0.249048 -0.326543 0.911781 -0.201917 -0.374498 0.904976 -0.148324 -0.422789 0.894008 -0.005994 -0.379918 0.925001 -0.000741 -0.647864 0.761756 0.063668 -0.472890 0.878818 0.127941 -0.427317 0.895004 0.183688 -0.382222 0.905630 0.233102 -0.337045 0.912175 0.277824 -0.291052 0.915479 0.319095 -0.243367 0.915942 0.357868 -0.192950 0.913620 0.394871 -0.138530 0.908232 0.334378 -0.006526 0.942416 0.000000 0.000000 -1.000000 0.000000 0.000000 1.000000</float_array><technique_common><accessor source="#invia_bumper-normals-array" count="82" stride="3"><param name="X" type="float"/><param name="Y" type="float"/><param name="Z" type="float"/></accessor></technique_common></source>
    <vertices id="invia_bumper-vertices"><input semantic="POSITION" source="#invia_bumper-positions"/></vertices>
    <triangles material="black_bumper-symbol" count="160"><input semantic="VERTEX" source="#invia_bumper-vertices" offset="0"/><input semantic="NORMAL" source="#invia_bumper-normals" offset="1"/><p>0 0 1 1 41 41 0 0 41 41 40 40 1 1 2 2 42 42 1 1 42 42 41 41 2 2 3 3 43 43 2 2 43 43 42 42 3 3 4 4 44 44 3 3 44 44 43 43 4 4 5 5 45 45 4 4 45 45 44 44 5 5 6 6 46 46 5 5 46 46 45 45 6 6 7 7 47 47 6 6 47 47 46 46 7 7 8 8 48 48 7 7 48 48 47 47 8 8 9 9 49 49 8 8 49 49 48 48 9 9 10 10 50 50 9 9 50 50 49 49 10 10 11 11 51 51 10 10 51 51 50 50 11 11 12 12 52 52 11 11 52 52 51 51 12 12 13 13 53 53 12 12 53 53 52 52 13 13 14 14 54 54 13 13 54 54 53 53 14 14 15 15 55 55 14 14 55 55 54 54 15 15 16 16 56 56 15 15 56 56 55 55 16 16 17 17 57 57 16 16 57 57 56 56 17 17 18 18 58 58 17 17 58 58 57 57 18 18 19 19 59 59 18 18 59 59 58 58 19 19 20 20 60 60 19 19 60 60 59 59 20 20 21 21 61 61 20 20 61 61 60 60 21 21 22 22 62 62 21 21 62 62 61 61 22 22 23 23 63 63 22 22 63 63 62 62 23 23 24 24 64 64 23 23 64 64 63 63 24 24 25 25 65 65 24 24 65 65 64 64 25 25 26 26 66 66 25 25 66 66 65 65 26 26 27 27 67 67 26 26 67 67 66 66 27 27 28 28 68 68 27 27 68 68 67 67 28 28 29 29 69 69 28 28 69 69 68 68 29 29 30 30 70 70 29 29 70 70 69 69 30 30 31 31 71 71 30 30 71 71 70 70 31 31 32 32 72 72 31 31 72 72 71 71 32 32 33 33 73 73 32 32 73 73 72 72 33 33 34 34 74 74 33 33 74 74 73 73 34 34 35 35 75 75 34 34 75 75 74 74 35 35 36 36 76 76 35 35 76 76 75 75 36 36 37 37 77 77 36 36 77 77 76 76 37 37 38 38 78 78 37 37 78 78 77 77 38 38 39 39 79 79 38 38 79 79 78 78 39 39 0 0 40 40 39 39 40 40 79 79 80 80 1 1 0 0 81 81 40 40 41 41 80 80 2 2 1 1 81 81 41 41 42 42 80 80 3 3 2 2 81 81 42 42 43 43 80 80 4 4 3 3 81 81 43 43 44 44 80 80 5 5 4 4 81 81 44 44 45 45 80 80 6 6 5 5 81 81 45 45 46 46 80 80 7 7 6 6 81 81 46 46 47 47 80 80 8 8 7 7 81 81 47 47 48 48 80 80 9 9 8 8 81 81 48 48 49 49 80 80 10 10 9 9 81 81 49 49 50 50 80 80 11 11 10 10 81 81 50 50 51 51 80 80 12 12 11 11 81 81 51 51 52 52 80 80 13 13 12 12 81 81 52 52 53 53 80 80 14 14 13 13 81 81 53 53 54 54 80 80 15 15 14 14 81 81 54 54 55 55 80 80 16 16 15 15 81 81 55 55 56 56 80 80 17 17 16 16 81 81 56 56 57 57 80 80 18 18 17 17 81 81 57 57 58 58 80 80 19 19 18 18 81 81 58 58 59 59 80 80 20 20 19 19 81 81 59 59 60 60 80 80 21 21 20 20 81 81 60 60 61 61 80 80 22 22 21 21 81 81 61 61 62 62 80 80 23 23 22 22 81 81 62 62 63 63 80 80 24 24 23 23 81 81 63 63 64 64 80 80 25 25 24 24 81 81 64 64 65 65 80 80 26 26 25 25 81 81 65 65 66 66 80 80 27 27 26 26 81 81 66 66 67 67 80 80 28 28 27 27 81 81 67 67 68 68 80 80 29 29 28 28 81 81 68 68 69 69 80 80 30 30 29 29 81 81 69 69 70 70 80 80 31 31 30 30 81 81 70 70 71 71 80 80 32 32 31 31 81 81 71 71 72 72 80 80 33 33 32 32 81 81 72 72 73 73 80 80 34 34 33 33 81 81 73 73 74 74 80 80 35 35 34 34 81 81 74 74 75 75 80 80 36 36 35 35 81 81 75 75 76 76 80 80 37 37 36 36 81 81 76 76 77 77 80 80 38 38 37 37 81 81 77 77 78 78 80 80 39 39 38 38 81 81 78 78 79 79 80 80 0 0 39 39 81 81 79 79 40 40</p></triangles>
  </mesh></geometry></library_geometries>
  <library_visual_scenes><visual_scene id="Scene" name="Scene"><node id="invia_bumper" name="invia_bumper"><instance_geometry url="#invia_bumper-mesh"><bind_material><technique_common><instance_material symbol="black_bumper-symbol" target="#black_bumper"/></technique_common></bind_material></instance_geometry></node></visual_scene></library_visual_scenes>
  <scene><instance_visual_scene url="#Scene"/></scene>
</COLLADA>
