# Generated by scripts/generate_invia_body.py
mtllib invia_bumper.mtl
o invia_picker_bumper
usemtl black_bumper
s 1
v 0.122500 0.068600 -0.122500
v 0.122052 0.074294 -0.122500
v 0.120718 0.079848 -0.122500
v 0.118533 0.085125 -0.122500
v 0.115548 0.089995 -0.122500
v 0.111839 0.094339 -0.122500
v 0.107495 0.098048 -0.122500
v 0.102625 0.101033 -0.122500
v 0.097348 0.103218 -0.122500
v 0.091794 0.104552 -0.122500
v -0.086100 0.105000 -0.122500
v -0.091794 0.104552 -0.122500
v -0.097348 0.103218 -0.122500
v -0.102625 0.101033 -0.122500
v -0.107495 0.098048 -0.122500
v -0.111839 0.094339 -0.122500
v -0.115548 0.089995 -0.122500
v -0.118533 0.085125 -0.122500
v -0.120718 0.079848 -0.122500
v -0.122052 0.074294 -0.122500
v -0.122500 -0.068600 -0.122500
v -0.122052 -0.074294 -0.122500
v -0.120718 -0.079848 -0.122500
v -0.118533 -0.085125 -0.122500
v -0.115548 -0.089995 -0.122500
v -0.111839 -0.094339 -0.122500
v -0.107495 -0.098048 -0.122500
v -0.102625 -0.101033 -0.122500
v -0.097348 -0.103218 -0.122500
v -0.091794 -0.104552 -0.122500
v 0.086100 -0.105000 -0.122500
v 0.091794 -0.104552 -0.122500
v 0.097348 -0.103218 -0.122500
v 0.102625 -0.101033 -0.122500
v 0.107495 -0.098048 -0.122500
v 0.111839 -0.094339 -0.122500
v 0.115548 -0.089995 -0.122500
v 0.118533 -0.085125 -0.122500
v 0.120718 -0.079848 -0.122500
v 0.122052 -0.074294 -0.122500
v 0.143500 0.079100 -0.080500
v 0.142966 0.085889 -0.080500
v 0.141376 0.092511 -0.080500
v 0.138770 0.098803 -0.080500
v 0.135211 0.104610 -0.080500
v 0.130788 0.109788 -0.080500
v 0.125610 0.114211 -0.080500
v 0.119803 0.117770 -0.080500
v 0.113511 0.120376 -0.080500
v 0.106889 0.121966 -0.080500
v -0.100100 0.122500 -0.080500
v -0.106889 0.121966 -0.080500
v -0.113511 0.120376 -0.080500
v -0.119803 0.117770 -0.080500
v -0.125610 0.114211 -0.080500
v -0.130788 0.109788 -0.080500
v -0.135211 0.104610 -0.080500
v -0.138770 0.098803 -0.080500
v -0.141376 0.092511 -0.080500
v -0.142966 0.085889 -0.080500
v -0.143500 -0.079100 -0.080500
v -0.142966 -0.085889 -0.080500
v -0.141376 -0.092511 -0.080500
v -0.138770 -0.098803 -0.080500
v -0.135211 -0.104610 -0.080500
v -0.130788 -0.109788 -0.080500
v -0.125610 -0.114211 -0.080500
v -0.119803 -0.117770 -0.080500
v -0.113511 -0.120376 -0.080500
v -0.106889 -0.121966 -0.080500
v 0.100100 -0.122500 -0.080500
v 0.106889 -0.121966 -0.080500
v 0.113511 -0.120376 -0.080500
v 0.119803 -0.117770 -0.080500
v 0.125610 -0.114211 -0.080500
v 0.130788 -0.109788 -0.080500
v 0.135211 -0.104610 -0.080500
v 0.138770 -0.098803 -0.080500
v 0.141376 -0.092511 -0.080500
v 0.142966 -0.085889 -0.080500
v 0.000000 0.000000 -0.122500
v 0.000000 0.000000 -0.080500
f 1 2 42 41
f 2 3 43 42
f 3 4 44 43
f 4 5 45 44
f 5 6 46 45
f 6 7 47 46
f 7 8 48 47
f 8 9 49 48
f 9 10 50 49
f 10 11 51 50
f 11 12 52 51
f 12 13 53 52
f 13 14 54 53
f 14 15 55 54
f 15 16 56 55
f 16 17 57 56
f 17 18 58 57
f 18 19 59 58
f 19 20 60 59
f 20 21 61 60
f 21 22 62 61
f 22 23 63 62
f 23 24 64 63
f 24 25 65 64
f 25 26 66 65
f 26 27 67 66
f 27 28 68 67
f 28 29 69 68
f 29 30 70 69
f 30 31 71 70
f 31 32 72 71
f 32 33 73 72
f 33 34 74 73
f 34 35 75 74
f 35 36 76 75
f 36 37 77 76
f 37 38 78 77
f 38 39 79 78
f 39 40 80 79
f 40 1 41 80
f 81 2 1
f 82 41 42
f 81 3 2
f 82 42 43
f 81 4 3
f 82 43 44
f 81 5 4
f 82 44 45
f 81 6 5
f 82 45 46
f 81 7 6
f 82 46 47
f 81 8 7
f 82 47 48
f 81 9 8
f 82 48 49
f 81 10 9
f 82 49 50
f 81 11 10
f 82 50 51
f 81 12 11
f 82 51 52
f 81 13 12
f 82 52 53
f 81 14 13
f 82 53 54
f 81 15 14
f 82 54 55
f 81 16 15
f 82 55 56
f 81 17 16
f 82 56 57
f 81 18 17
f 82 57 58
f 81 19 18
f 82 58 59
f 81 20 19
f 82 59 60
f 81 21 20
f 82 60 61
f 81 22 21
f 82 61 62
f 81 23 22
f 82 62 63
f 81 24 23
f 82 63 64
f 81 25 24
f 82 64 65
f 81 26 25
f 82 65 66
f 81 27 26
f 82 66 67
f 81 28 27
f 82 67 68
f 81 29 28
f 82 68 69
f 81 30 29
f 82 69 70
f 81 31 30
f 82 70 71
f 81 32 31
f 82 71 72
f 81 33 32
f 82 72 73
f 81 34 33
f 82 73 74
f 81 35 34
f 82 74 75
f 81 36 35
f 82 75 76
f 81 37 36
f 82 76 77
f 81 38 37
f 82 77 78
f 81 39 38
f 82 78 79
f 81 40 39
f 82 79 80
f 81 1 40
f 82 80 41
